<svg version="1.1" xmlns="http://www.w3.org/2000/svg" viewBox="0 0 336 99" width="672" height="198"><!-- svg-source:excalidraw --><metadata></metadata><defs><style class="style-fonts">
      </style></defs><rect x="0" y="0" width="336" height="99" fill="#0000"></rect><g transform="translate(14 26) rotate(0 17 23.5)" stroke="none"><path fill="#ffffff" d="M 2.17,0.24 Q 2.17,0.24 1.88,2.82 1.59,5.40 2.05,10.02 2.50,14.64 3.27,21.27 4.03,27.91 4.08,35.17 4.12,42.43 3.56,47.88 3.00,53.34 2.53,56.52 2.06,59.71 2.19,59.40 2.32,59.09 2.27,59.35 2.22,59.61 2.10,59.85 1.99,60.08 1.82,60.29 1.65,60.49 1.44,60.65 1.23,60.81 0.99,60.91 0.75,61.01 0.49,61.05 0.23,61.09 -0.03,61.07 -0.29,61.05 -0.54,60.97 -0.79,60.88 -1.01,60.74 -1.23,60.60 -1.42,60.41 -1.60,60.22 -1.73,59.99 -1.86,59.76 -1.93,59.51 -2.00,59.25 -2.01,58.99 -2.02,58.73 -2.07,56.56 -2.12,54.40 -2.42,51.21 -2.72,48.03 -3.42,43.25 -4.12,38.46 -4.71,32.91 -5.30,27.36 -4.98,20.82 -4.66,14.28 -3.05,8.19 -1.43,2.10 0.73,-2.58 2.91,-7.28 5.44,-10.32 7.98,-13.37 11.43,-14.84 14.87,-16.30 18.68,-15.98 22.48,-15.66 25.77,-13.60 29.06,-11.55 31.42,-8.14 33.78,-4.73 34.51,-1.20 35.24,2.31 33.98,5.60 32.71,8.89 29.66,11.83 26.62,14.76 23.25,16.86 19.87,18.95 17.17,20.15 14.48,21.35 12.44,21.23 10.41,21.11 9.65,19.08 8.90,17.05 9.72,16.22 10.55,15.39 12.48,14.85 14.41,14.30 17.05,14.44 19.69,14.58 22.94,15.56 26.20,16.54 29.14,18.18 32.08,19.83 34.06,21.83 36.03,23.83 37.23,26.01 38.43,28.20 38.68,30.35 38.92,32.50 38.02,34.58 37.12,36.66 35.79,38.39 34.46,40.11 32.25,41.57 30.04,43.03 28.01,44.16 25.98,45.29 23.84,46.11 21.71,46.93 19.98,47.54 18.25,48.16 16.66,48.71 15.06,49.25 13.67,50.00 12.28,50.74 9.94,51.29 7.60,51.85 7.39,51.88 7.18,51.91 6.98,51.88 6.77,51.84 6.58,51.74 6.39,51.64 6.25,51.49 6.10,51.33 6.01,51.14 5.92,50.94 5.90,50.73 5.88,50.52 5.93,50.31 5.97,50.11 6.08,49.92 6.20,49.74 6.36,49.61 6.52,49.47 6.72,49.39 6.92,49.31 7.13,49.30 7.34,49.29 7.55,49.35 7.75,49.41 7.93,49.53 8.10,49.65 8.23,49.82 8.36,49.99 8.42,50.19 8.49,50.39 8.49,50.61 8.49,50.82 8.42,51.02 8.35,51.22 8.22,51.39 8.09,51.56 7.91,51.68 7.74,51.79 7.53,51.85 7.33,51.91 7.11,51.89 6.90,51.88 6.71,51.80 6.51,51.72 6.35,51.58 6.19,51.44 6.08,51.26 5.97,51.08 5.92,50.87 5.88,50.66 5.90,50.45 5.93,50.24 6.02,50.05 6.11,49.86 6.26,49.70 6.40,49.55 6.59,49.45 6.78,49.35 6.78,49.35 6.78,49.35 8.52,48.11 10.25,46.87 11.94,45.99 13.63,45.12 15.21,44.58 16.79,44.04 18.48,43.44 20.16,42.84 22.01,42.15 23.86,41.46 25.79,40.40 27.71,39.33 29.40,38.34 31.09,37.35 32.16,36.01 33.23,34.67 33.93,33.60 34.63,32.53 34.58,31.32 34.53,30.12 33.69,28.47 32.85,26.82 31.36,25.21 29.88,23.60 27.38,22.15 24.89,20.71 22.13,19.82 19.36,18.94 17.31,18.76 15.25,18.59 13.60,19.25 11.95,19.91 12.44,18.61 12.94,17.32 15.27,16.27 17.59,15.22 20.63,13.38 23.66,11.55 26.22,9.29 28.79,7.03 29.89,4.86 31.00,2.69 30.55,0.13 30.09,-2.42 28.32,-5.21 26.55,-8.00 24.17,-9.70 21.79,-11.39 19.01,-11.80 16.23,-12.20 13.67,-11.30 11.11,-10.41 8.98,-7.90 6.85,-5.39 4.81,-1.07 2.78,3.24 1.24,8.88 -0.29,14.53 -0.62,20.72 -0.95,26.91 -0.37,32.37 0.20,37.83 0.91,42.73 1.62,47.62 1.93,50.97 2.24,54.32 2.28,56.70 2.32,59.09 2.27,59.35 2.22,59.61 2.10,59.84 1.99,60.08 1.82,60.29 1.65,60.49 1.44,60.65 1.23,60.81 0.99,60.91 0.75,61.01 0.49,61.05 0.23,61.09 -0.03,61.07 -0.29,61.05 -0.54,60.97 -0.79,60.88 -1.01,60.74 -1.23,60.60 -1.42,60.41 -1.60,60.22 -1.73,59.99 -1.86,59.76 -1.93,59.51 -2.00,59.25 -2.01,58.99 -2.02,58.73 -1.69,58.30 -1.35,57.87 -1.35,55.38 -1.34,52.88 -0.79,47.66 -0.24,42.45 -0.27,35.43 -0.30,28.40 -1.07,21.73 -1.84,15.05 -2.29,9.99 -2.74,4.94 -2.46,2.35 -2.17,-0.24 -2.11,-0.49 -2.05,-0.75 -1.93,-0.98 -1.81,-1.22 -1.63,-1.42 -1.46,-1.62 -1.25,-1.77 -1.03,-1.92 -0.79,-2.02 -0.54,-2.11 -0.28,-2.15 -0.02,-2.18 0.23,-2.15 0.50,-2.12 0.74,-2.03 0.99,-1.94 1.21,-1.79 1.43,-1.65 1.60,-1.45 1.78,-1.26 1.91,-1.02 2.03,-0.79 2.10,-0.54 2.16,-0.28 2.17,-0.02 2.17,0.24 2.17,0.24 L 2.17,0.24 Z"></path></g><g transform="translate(59 62) rotate(0 8.5 -3.5)" stroke="none"><path fill="#ffffff" d="M 0,-2.18 Q 0,-2.18 1.05,-2.15 2.10,-2.12 3.81,-3.41 5.52,-4.70 7.73,-6.90 9.94,-9.09 11.37,-11.33 12.80,-13.56 11.30,-12.88 9.81,-12.20 8.80,-10.24 7.79,-8.29 7.06,-5.55 6.33,-2.82 6.29,-0.16 6.24,2.49 7.20,4.10 8.16,5.71 9.64,6.51 11.11,7.32 13.55,7.26 15.98,7.20 16.19,7.17 16.40,7.15 16.61,7.20 16.82,7.24 17.00,7.35 17.18,7.46 17.32,7.62 17.46,7.78 17.54,7.98 17.62,8.18 17.63,8.39 17.64,8.60 17.59,8.80 17.53,9.01 17.41,9.19 17.29,9.36 17.12,9.49 16.96,9.62 16.75,9.69 16.55,9.76 16.34,9.76 16.13,9.76 15.93,9.69 15.73,9.63 15.56,9.50 15.39,9.37 15.27,9.19 15.15,9.02 15.09,8.81 15.03,8.61 15.04,8.40 15.05,8.18 15.13,7.99 15.21,7.79 15.35,7.63 15.48,7.46 15.66,7.35 15.85,7.24 16.05,7.20 16.26,7.15 16.47,7.17 16.68,7.20 16.88,7.28 17.07,7.37 17.22,7.52 17.38,7.66 17.48,7.85 17.58,8.04 17.61,8.25 17.65,8.46 17.62,8.67 17.58,8.88 17.48,9.07 17.38,9.25 17.23,9.40 17.08,9.55 16.88,9.64 16.69,9.73 16.69,9.73 16.69,9.73 12.95,10.43 9.22,11.14 6.86,9.56 4.51,7.97 3.22,5.32 1.94,2.66 2.02,-0.65 2.11,-3.96 3.04,-7.18 3.97,-10.40 5.50,-12.98 7.04,-15.55 9.08,-17.03 11.12,-18.51 12.85,-18.66 14.59,-18.81 15.92,-17.46 17.26,-16.12 16.88,-13.68 16.50,-11.25 14.76,-8.62 13.02,-5.99 10.47,-3.52 7.92,-1.04 5.20,0.54 2.49,2.12 1.24,2.15 0,2.18 -0.26,2.15 -0.52,2.12 -0.76,2.02 -1.01,1.93 -1.23,1.78 -1.44,1.63 -1.62,1.43 -1.79,1.24 -1.92,1.00 -2.04,0.77 -2.10,0.51 -2.17,0.26 -2.17,-0.00 -2.17,-0.26 -2.10,-0.51 -2.04,-0.77 -1.92,-1.00 -1.79,-1.24 -1.62,-1.43 -1.44,-1.63 -1.23,-1.78 -1.01,-1.93 -0.76,-2.02 -0.52,-2.12 -0.26,-2.15 0.00,-2.18 0.00,-2.18 L 0,-2.18 Z"></path></g><g transform="translate(84 53) rotate(0 9 10)" stroke="none"><path fill="#ffffff" d="M 2.15,0.35 Q 2.15,0.35 1.86,2.08 1.58,3.80 1.47,6.70 1.36,9.60 1.31,12.87 1.26,16.15 0.87,17.54 0.48,18.92 0.52,17.53 0.56,16.15 1.81,13.58 3.07,11.01 4.82,8.07 6.58,5.12 8.16,2.20 9.73,-0.70 11.63,-2.56 13.52,-4.42 16.14,-4.15 18.75,-3.88 19.53,-1.99 20.32,-0.10 20.30,2.95 20.28,6.01 19.96,9.27 19.64,12.52 19.21,15.63 18.78,18.74 18.75,21.02 18.71,23.31 18.76,23.51 18.81,23.72 18.79,23.93 18.77,24.14 18.69,24.34 18.60,24.53 18.46,24.69 18.31,24.85 18.13,24.95 17.94,25.05 17.73,25.09 17.52,25.13 17.31,25.10 17.10,25.06 16.91,24.97 16.72,24.87 16.58,24.72 16.43,24.57 16.33,24.38 16.24,24.18 16.22,23.97 16.19,23.76 16.23,23.55 16.27,23.35 16.38,23.16 16.49,22.98 16.65,22.84 16.81,22.70 17.00,22.62 17.20,22.54 17.41,22.52 17.62,22.51 17.83,22.56 18.03,22.61 18.21,22.73 18.39,22.85 18.52,23.01 18.65,23.18 18.72,23.38 18.79,23.58 18.80,23.79 18.80,24.00 18.74,24.21 18.67,24.41 18.55,24.58 18.42,24.75 18.25,24.87 18.07,25.00 17.87,25.06 17.66,25.12 17.45,25.11 17.24,25.10 17.04,25.02 16.84,24.95 16.68,24.81 16.51,24.68 16.40,24.50 16.29,24.32 16.29,24.32 16.29,24.32 15.37,21.24 14.45,18.16 14.87,15.12 15.29,12.09 15.60,9.00 15.91,5.90 16.02,3.50 16.13,1.10 16.02,0.04 15.92,-1.02 14.73,0.19 13.55,1.41 11.94,4.39 10.34,7.36 8.66,10.16 6.99,12.95 5.58,15.78 4.17,18.61 2.85,20.28 1.53,21.96 -0.44,21.59 -2.41,21.22 -2.76,18.65 -3.10,16.08 -3.05,12.75 -3.00,9.42 -2.86,6.26 -2.73,3.09 -2.44,1.36 -2.15,-0.35 -2.08,-0.61 -2.00,-0.86 -1.87,-1.09 -1.74,-1.32 -1.55,-1.50 -1.37,-1.69 -1.15,-1.83 -0.92,-1.97 -0.67,-2.06 -0.42,-2.14 -0.16,-2.16 0.09,-2.18 0.35,-2.14 0.61,-2.09 0.85,-1.99 1.10,-1.88 1.31,-1.72 1.52,-1.57 1.68,-1.36 1.85,-1.16 1.96,-0.92 2.07,-0.68 2.12,-0.42 2.17,-0.16 2.16,0.09 2.15,0.35 2.15,0.35 L 2.15,0.35 Z"></path></g><g transform="translate(109 80) rotate(0 18 -2)" stroke="none"><path fill="#ffffff" d="M 0,-2.18 Q 0,-2.18 3.16,-2.18 6.32,-2.18 10.69,-2.75 15.06,-3.31 19.50,-4.12 23.95,-4.93 27.08,-5.29 30.22,-5.65 31.76,-5.63 33.30,-5.62 33.51,-5.64 33.72,-5.66 33.93,-5.62 34.14,-5.57 34.32,-5.46 34.50,-5.35 34.64,-5.19 34.77,-5.02 34.85,-4.83 34.93,-4.63 34.94,-4.42 34.95,-4.20 34.89,-4.00 34.84,-3.80 34.72,-3.62 34.60,-3.44 34.43,-3.32 34.26,-3.19 34.05,-3.12 33.85,-3.05 33.64,-3.06 33.43,-3.06 33.23,-3.12 33.03,-3.19 32.86,-3.32 32.69,-3.45 32.57,-3.63 32.45,-3.80 32.40,-4.01 32.34,-4.21 32.35,-4.43 32.36,-4.64 32.44,-4.84 32.52,-5.03 32.66,-5.19 32.80,-5.36 32.98,-5.46 33.16,-5.57 33.37,-5.62 33.58,-5.66 33.79,-5.64 34.00,-5.62 34.19,-5.53 34.39,-5.44 34.54,-5.29 34.69,-5.14 34.79,-4.95 34.89,-4.77 34.92,-4.56 34.96,-4.35 34.92,-4.14 34.89,-3.93 34.79,-3.74 34.69,-3.55 34.53,-3.41 34.38,-3.26 34.19,-3.17 33.99,-3.08 33.99,-3.08 33.99,-3.08 32.35,-2.20 30.72,-1.31 27.72,-0.97 24.73,-0.63 20.17,0.19 15.61,1.01 10.97,1.60 6.32,2.18 3.16,2.18 0,2.18 -0.26,2.15 -0.52,2.12 -0.76,2.02 -1.01,1.93 -1.23,1.78 -1.44,1.63 -1.62,1.43 -1.79,1.24 -1.92,1.00 -2.04,0.77 -2.10,0.51 -2.17,0.26 -2.17,-0.00 -2.17,-0.26 -2.10,-0.51 -2.04,-0.77 -1.92,-1.00 -1.79,-1.24 -1.62,-1.43 -1.44,-1.63 -1.23,-1.78 -1.01,-1.93 -0.76,-2.02 -0.52,-2.12 -0.26,-2.15 0.00,-2.18 0.00,-2.18 L 0,-2.18 Z"></path></g><g transform="translate(163 18) rotate(0 13 23.5)" stroke="none"><path fill="#ffffff" d="M -2.15,0.35 Q -2.15,0.35 -2.44,-1.36 -2.73,-3.08 -2.85,-3.53 -2.97,-3.98 -2.98,-4.24 -2.99,-4.50 -2.94,-4.76 -2.89,-5.02 -2.78,-5.26 -2.67,-5.50 -2.50,-5.70 -2.34,-5.91 -2.13,-6.07 -1.92,-6.23 -1.67,-6.33 -1.43,-6.43 -1.17,-6.48 -0.91,-6.52 -0.65,-6.50 -0.39,-6.48 -0.14,-6.40 0.11,-6.32 0.33,-6.18 0.55,-6.04 0.73,-5.85 0.92,-5.66 1.05,-5.43 1.18,-5.20 1.26,-4.95 1.33,-4.70 1.56,-3.47 1.80,-2.25 2.46,0.84 3.13,3.93 3.44,9.45 3.75,14.97 3.88,21.59 4.00,28.22 3.76,33.65 3.52,39.08 4.00,40.53 4.48,41.98 4.43,42.24 4.39,42.50 4.29,42.74 4.18,42.99 4.02,43.20 3.86,43.41 3.66,43.57 3.46,43.74 3.22,43.85 2.98,43.96 2.72,44.01 2.46,44.07 2.20,44.05 1.93,44.04 1.68,43.97 1.43,43.89 1.20,43.76 0.97,43.63 0.78,43.45 0.59,43.26 0.45,43.04 0.31,42.82 0.23,42.57 0.15,42.32 0.13,42.05 0.11,41.79 1.76,39.67 3.42,37.56 5.36,35.04 7.30,32.51 9.48,30.65 11.67,28.79 14.04,27.88 16.41,26.98 18.97,27.25 21.53,27.52 23.46,29.04 25.39,30.55 26.54,32.93 27.69,35.31 27.57,38.09 27.44,40.88 26.08,43.68 24.72,46.49 22.20,48.70 19.69,50.91 16.40,52.18 13.11,53.44 10.10,53.68 7.08,53.91 5.01,51.98 2.93,50.04 2.78,50.04 2.62,50.03 2.47,49.98 2.32,49.93 2.18,49.85 2.04,49.77 1.93,49.66 1.82,49.55 1.74,49.41 1.65,49.28 1.61,49.13 1.56,48.98 1.55,48.82 1.54,48.66 1.57,48.50 1.59,48.35 1.66,48.20 1.72,48.06 1.82,47.93 1.92,47.81 2.04,47.71 2.16,47.61 2.31,47.55 2.45,47.48 2.61,47.45 2.76,47.42 2.24,47.75 1.71,48.08 1.84,47.92 1.98,47.75 2.16,47.64 2.34,47.53 2.54,47.47 2.75,47.42 2.96,47.44 3.17,47.46 3.37,47.55 3.56,47.63 3.72,47.77 3.88,47.92 3.98,48.10 4.08,48.29 4.12,48.50 4.16,48.71 4.13,48.92 4.10,49.13 4.01,49.32 3.91,49.51 3.76,49.66 3.61,49.80 3.42,49.90 3.23,49.99 3.02,50.02 2.81,50.05 2.60,50.01 2.39,49.96 2.21,49.86 2.02,49.75 1.88,49.59 1.74,49.44 1.66,49.24 1.57,49.04 1.56,48.83 1.54,48.62 1.59,48.41 1.65,48.21 1.76,48.03 1.88,47.85 2.04,47.72 2.21,47.59 2.41,47.52 2.61,47.44 2.82,47.44 3.03,47.43 3.24,47.50 3.44,47.56 3.61,47.69 3.78,47.81 3.91,47.98 4.03,48.16 4.09,48.36 4.15,48.56 4.14,48.78 4.14,48.99 3.54,49.52 2.93,50.04 2.78,50.04 2.62,50.03 2.47,49.98 2.32,49.93 2.18,49.85 2.04,49.77 1.93,49.66 1.82,49.55 1.74,49.41 1.65,49.28 1.61,49.13 1.56,48.98 1.55,48.82 1.54,48.66 1.57,48.50 1.59,48.35 1.66,48.20 1.72,48.06 1.82,47.93 1.92,47.81 2.04,47.71 2.16,47.61 2.31,47.55 2.45,47.48 2.61,47.45 2.76,47.42 4.83,48.49 6.89,49.56 9.27,49.44 11.66,49.33 14.30,48.42 16.95,47.51 18.93,45.95 20.91,44.39 22.02,42.39 23.12,40.38 23.39,38.61 23.66,36.84 23.02,35.27 22.39,33.70 21.47,32.68 20.55,31.67 19.10,31.40 17.66,31.12 16.03,31.65 14.40,32.18 12.57,33.69 10.74,35.20 8.66,37.89 6.57,40.59 5.53,41.28 4.48,41.98 4.43,42.24 4.39,42.50 4.29,42.74 4.18,42.99 4.02,43.20 3.86,43.41 3.66,43.57 3.46,43.74 3.22,43.85 2.98,43.96 2.72,44.01 2.46,44.07 2.20,44.05 1.94,44.04 1.68,43.97 1.43,43.89 1.20,43.76 0.97,43.63 0.78,43.45 0.59,43.26 0.45,43.04 0.31,42.82 0.23,42.57 0.15,42.32 0.13,42.05 0.11,41.79 -0.35,40.39 -0.82,38.99 -0.59,33.64 -0.36,28.30 -0.48,21.75 -0.60,15.20 -0.87,10.02 -1.13,4.84 -1.81,1.70 -2.49,-1.43 -2.73,-2.71 -2.97,-3.98 -2.98,-4.24 -2.99,-4.50 -2.94,-4.76 -2.89,-5.02 -2.78,-5.26 -2.67,-5.50 -2.50,-5.70 -2.34,-5.91 -2.13,-6.07 -1.92,-6.23 -1.67,-6.33 -1.43,-6.43 -1.17,-6.48 -0.91,-6.52 -0.65,-6.50 -0.39,-6.48 -0.14,-6.40 0.10,-6.32 0.33,-6.18 0.55,-6.04 0.73,-5.85 0.92,-5.66 1.05,-5.43 1.18,-5.20 1.26,-4.95 1.33,-4.70 1.45,-4.25 1.58,-3.81 1.86,-2.08 2.15,-0.35 2.16,-0.09 2.17,0.16 2.12,0.42 2.07,0.68 1.96,0.92 1.85,1.16 1.68,1.36 1.52,1.57 1.31,1.72 1.10,1.88 0.85,1.99 0.61,2.09 0.35,2.14 0.09,2.18 -0.16,2.16 -0.42,2.14 -0.67,2.06 -0.92,1.97 -1.15,1.83 -1.37,1.69 -1.55,1.50 -1.74,1.32 -1.87,1.09 -2.00,0.86 -2.08,0.61 -2.15,0.35 -2.15,0.35 L -2.15,0.35 Z"></path></g><g transform="translate(204 51) rotate(0 -2.5 9.5)" stroke="none"><path fill="#ffffff" d="M 1.06,1.91 Q 1.06,1.91 -1.49,3.31 -4.04,4.72 -5.39,6.76 -6.73,8.80 -7.59,11.22 -8.45,13.64 -7.65,14.78 -6.84,15.92 -5.37,15.07 -3.90,14.22 -1.84,12.57 0.22,10.93 1.58,9.24 2.94,7.56 3.16,6.23 3.37,4.91 1.20,3.33 -0.97,1.76 -0.98,1.54 -0.99,1.33 -0.93,1.13 -0.87,0.92 -0.75,0.75 -0.63,0.57 -0.46,0.45 -0.29,0.32 -0.08,0.26 0.11,0.19 0.32,0.19 0.53,0.19 0.73,0.26 0.93,0.34 1.10,0.47 1.27,0.60 1.39,0.77 1.50,0.95 1.56,1.16 1.61,1.36 1.60,1.57 1.58,1.79 1.50,1.98 1.42,2.18 1.28,2.34 1.14,2.50 0.96,2.61 0.78,2.71 0.57,2.76 0.36,2.80 0.15,2.77 -0.05,2.75 -0.24,2.66 -0.44,2.57 -0.59,2.42 -0.74,2.27 -0.84,2.08 -0.93,1.89 -0.97,1.68 -1.00,1.47 -0.96,1.26 -0.92,1.05 -0.82,0.87 -0.72,0.68 -0.56,0.54 -0.41,0.39 -0.21,0.31 -0.02,0.22 0.18,0.20 0.39,0.18 0.60,0.23 0.81,0.27 0.99,0.39 1.17,0.50 1.30,0.66 1.44,0.82 1.51,1.02 1.59,1.22 1.59,1.22 1.59,1.22 1.50,0.97 1.40,0.72 3.09,0.83 4.78,0.94 6.14,2.91 7.51,4.89 6.97,7.49 6.44,10.09 4.67,12.23 2.91,14.37 0.34,16.31 -2.23,18.25 -4.91,19.07 -7.59,19.89 -9.70,18.69 -11.81,17.49 -12.19,14.90 -12.58,12.31 -11.44,9.30 -10.31,6.29 -8.30,3.65 -6.30,1.02 -3.68,-0.44 -1.06,-1.91 -0.81,-2.01 -0.57,-2.10 -0.31,-2.14 -0.05,-2.18 0.21,-2.16 0.47,-2.13 0.72,-2.04 0.96,-1.95 1.19,-1.81 1.41,-1.67 1.58,-1.47 1.76,-1.28 1.89,-1.05 2.02,-0.82 2.09,-0.56 2.16,-0.31 2.16,-0.05 2.17,0.21 2.11,0.46 2.06,0.72 1.94,0.96 1.82,1.19 1.65,1.40 1.48,1.60 1.27,1.75 1.06,1.91 1.06,1.91 L 1.06,1.91 Z"></path></g><g transform="translate(216 54) rotate(0 10.5 8.5)" stroke="none"><path fill="#ffffff" d="M 2.18,0 Q 2.18,0 2.18,1.72 2.18,3.45 1.89,6.03 1.59,8.61 1.48,11.02 1.36,13.43 1.20,15.06 1.03,16.68 1.70,17.48 2.36,18.27 2.32,18.54 2.29,18.80 2.19,19.04 2.09,19.28 1.93,19.50 1.77,19.71 1.57,19.88 1.37,20.05 1.13,20.16 0.90,20.28 0.64,20.34 0.38,20.39 0.12,20.38 -0.13,20.38 -0.39,20.31 -0.64,20.24 -0.87,20.11 -1.10,19.98 -1.30,19.80 -1.49,19.62 -1.63,19.40 -1.78,19.18 -1.86,18.93 -1.95,18.68 -1.97,18.42 -2.00,18.16 -0.62,16.24 0.75,14.32 2.29,12.18 3.83,10.03 5.66,7.37 7.48,4.71 10.06,1.75 12.65,-1.20 14.93,-3.17 17.22,-5.14 18.04,-4.94 18.87,-4.75 19.08,-4.90 19.30,-5.06 19.54,-5.15 19.79,-5.25 20.05,-5.29 20.31,-5.33 20.57,-5.30 20.83,-5.28 21.08,-5.19 21.33,-5.10 21.55,-4.96 21.77,-4.82 21.95,-4.62 22.13,-4.43 22.26,-4.20 22.38,-3.97 22.45,-3.71 22.52,-3.46 22.53,-3.20 22.54,-2.93 22.48,-2.68 22.42,-2.42 22.30,-2.18 22.19,-1.95 22.02,-1.74 21.85,-1.54 21.78,-0.34 21.71,0.86 20.65,4.02 19.59,7.18 17.95,10.62 16.31,14.05 15.41,16.72 14.50,19.39 14.52,20.44 14.54,21.48 14.63,21.68 14.73,21.87 14.75,22.08 14.78,22.29 14.73,22.50 14.69,22.71 14.58,22.89 14.48,23.07 14.32,23.21 14.16,23.35 13.96,23.43 13.76,23.51 13.55,23.53 13.34,23.54 13.14,23.49 12.93,23.43 12.75,23.32 12.57,23.20 12.44,23.03 12.31,22.87 12.24,22.67 12.17,22.46 12.17,22.25 12.17,22.04 12.23,21.84 12.30,21.64 12.42,21.46 12.55,21.29 12.72,21.17 12.90,21.05 13.10,20.99 13.31,20.93 13.52,20.94 13.73,20.95 13.93,21.03 14.13,21.10 14.29,21.24 14.46,21.37 14.57,21.55 14.68,21.73 14.73,21.94 14.78,22.15 14.76,22.36 14.74,22.57 14.65,22.76 14.56,22.96 14.42,23.11 14.27,23.27 14.09,23.37 13.90,23.47 13.69,23.51 13.48,23.55 13.27,23.52 13.06,23.49 12.87,23.39 12.68,23.29 12.54,23.14 12.39,22.99 12.39,22.99 12.39,22.99 11.36,20.59 10.34,18.20 11.35,15.18 12.37,12.16 13.91,8.97 15.45,5.78 16.44,2.85 17.44,-0.08 18.16,-2.41 18.87,-4.75 19.08,-4.90 19.30,-5.06 19.54,-5.15 19.78,-5.25 20.05,-5.29 20.31,-5.33 20.57,-5.30 20.83,-5.28 21.08,-5.19 21.33,-5.10 21.55,-4.96 21.77,-4.82 21.95,-4.62 22.13,-4.43 22.26,-4.20 22.38,-3.97 22.45,-3.71 22.52,-3.46 22.53,-3.20 22.54,-2.93 22.48,-2.68 22.42,-2.42 22.30,-2.18 22.19,-1.95 22.02,-1.74 21.85,-1.54 20.46,-1.55 19.07,-1.55 17.50,0.05 15.94,1.67 13.51,4.43 11.08,7.19 9.23,9.89 7.38,12.59 4.87,15.43 2.36,18.27 2.32,18.53 2.29,18.80 2.19,19.04 2.09,19.28 1.93,19.50 1.77,19.71 1.57,19.88 1.37,20.05 1.13,20.16 0.90,20.28 0.64,20.34 0.38,20.39 0.12,20.38 -0.13,20.38 -0.39,20.31 -0.64,20.24 -0.87,20.11 -1.10,19.98 -1.30,19.80 -1.49,19.62 -1.63,19.40 -1.78,19.18 -1.86,18.93 -1.95,18.68 -1.97,18.42 -2.00,18.16 -2.44,17.90 -2.88,17.64 -2.94,15.43 -3.00,13.22 -2.87,10.66 -2.74,8.11 -2.46,5.78 -2.18,3.44 -2.18,1.72 -2.18,0 -2.15,-0.26 -2.12,-0.52 -2.02,-0.76 -1.93,-1.01 -1.78,-1.23 -1.63,-1.44 -1.43,-1.62 -1.24,-1.79 -1.00,-1.92 -0.77,-2.04 -0.51,-2.10 -0.26,-2.17 0.00,-2.17 0.26,-2.17 0.51,-2.10 0.77,-2.04 1.00,-1.92 1.24,-1.79 1.43,-1.62 1.63,-1.44 1.78,-1.23 1.93,-1.01 2.02,-0.76 2.12,-0.52 2.15,-0.26 2.18,0.00 2.18,0.00 L 2.18,0 Z"></path></g><g transform="translate(246 66) rotate(0 5 -2)" stroke="none"><path fill="#ffffff" d="M -1.31,-1.74 Q -1.31,-1.74 0.98,-3.47 3.28,-5.19 5.62,-7.30 7.96,-9.41 9.09,-10.09 10.21,-10.78 9.32,-9.79 8.42,-8.80 6.19,-7.26 3.97,-5.71 2.31,-3.26 0.65,-0.80 -0.11,1.04 -0.88,2.89 0.30,3.95 1.48,5.01 3.34,5.43 5.20,5.85 6.74,6.25 8.28,6.66 8.49,6.69 8.70,6.73 8.89,6.83 9.07,6.93 9.22,7.09 9.36,7.24 9.45,7.44 9.54,7.63 9.56,7.84 9.58,8.05 9.53,8.26 9.48,8.47 9.37,8.65 9.26,8.83 9.10,8.97 8.94,9.10 8.74,9.18 8.54,9.26 8.33,9.27 8.12,9.28 7.91,9.22 7.71,9.16 7.53,9.04 7.36,8.92 7.23,8.75 7.10,8.58 7.04,8.37 6.97,8.17 6.97,7.96 6.97,7.75 7.04,7.55 7.11,7.35 7.24,7.18 7.37,7.01 7.55,6.89 7.73,6.77 7.93,6.72 8.14,6.66 8.35,6.68 8.56,6.69 8.76,6.77 8.96,6.85 9.12,6.99 9.28,7.13 9.39,7.31 9.49,7.50 9.54,7.70 9.58,7.91 9.56,8.12 9.53,8.33 9.44,8.53 9.35,8.72 9.20,8.87 9.05,9.02 8.87,9.12 8.68,9.22 8.47,9.25 8.26,9.28 8.26,9.28 8.26,9.28 6.11,9.66 3.96,10.03 1.20,9.02 -1.55,8.02 -3.12,5.72 -4.69,3.42 -3.81,0.07 -2.94,-3.26 -0.74,-6.27 1.45,-9.27 4.25,-11.11 7.05,-12.94 9.09,-13.46 11.14,-13.98 12.52,-12.38 13.90,-10.78 12.39,-8.47 10.89,-6.16 8.40,-3.93 5.91,-1.70 3.61,0.02 1.31,1.74 1.08,1.88 0.85,2.01 0.60,2.08 0.34,2.15 0.08,2.16 -0.17,2.17 -0.43,2.12 -0.69,2.07 -0.93,1.95 -1.17,1.84 -1.37,1.67 -1.57,1.51 -1.73,1.30 -1.89,1.09 -1.99,0.84 -2.10,0.60 -2.14,0.34 -2.18,0.08 -2.16,-0.17 -2.14,-0.43 -2.05,-0.68 -1.97,-0.93 -1.83,-1.16 -1.69,-1.38 -1.50,-1.56 -1.31,-1.74 -1.31,-1.74 L -1.31,-1.74 Z"></path></g><g transform="translate(269 75) rotate(0 28 -3)" stroke="none"><path fill="#ffffff" d="M 0.30,-2.16 Q 0.30,-2.16 2.31,-1.87 4.32,-1.58 8.43,-1.76 12.55,-1.94 18.86,-2.86 25.18,-3.78 31.89,-5.03 38.61,-6.28 43.51,-7.11 48.41,-7.94 50.86,-7.86 53.31,-7.78 53.52,-7.77 53.73,-7.77 53.93,-7.70 54.13,-7.63 54.30,-7.50 54.47,-7.37 54.59,-7.19 54.70,-7.01 54.76,-6.81 54.81,-6.60 54.79,-6.39 54.78,-6.18 54.70,-5.98 54.62,-5.78 54.48,-5.62 54.34,-5.46 54.15,-5.36 53.97,-5.25 53.76,-5.21 53.55,-5.17 53.34,-5.19 53.13,-5.22 52.94,-5.31 52.75,-5.40 52.60,-5.55 52.44,-5.70 52.35,-5.89 52.25,-6.08 52.22,-6.29 52.19,-6.50 52.23,-6.71 52.26,-6.92 52.37,-7.10 52.47,-7.29 52.62,-7.43 52.78,-7.58 52.98,-7.66 53.17,-7.75 53.38,-7.77 53.59,-7.79 53.80,-7.74 54.01,-7.69 54.19,-7.58 54.37,-7.47 54.50,-7.30 54.64,-7.14 54.71,-6.94 54.79,-6.74 54.80,-6.53 54.80,-6.32 54.74,-6.11 54.68,-5.91 54.56,-5.73 54.44,-5.56 54.27,-5.43 54.10,-5.31 53.90,-5.24 53.69,-5.18 53.69,-5.18 53.69,-5.18 51.42,-4.40 49.14,-3.62 44.27,-2.80 39.41,-1.98 32.60,-0.72 25.80,0.54 19.26,1.48 12.72,2.42 8.22,2.58 3.72,2.73 1.70,2.45 -0.30,2.16 -0.56,2.09 -0.81,2.02 -1.04,1.90 -1.27,1.77 -1.47,1.59 -1.66,1.41 -1.81,1.19 -1.95,0.97 -2.04,0.72 -2.13,0.47 -2.15,0.21 -2.18,-0.04 -2.14,-0.30 -2.11,-0.56 -2.01,-0.81 -1.91,-1.05 -1.75,-1.27 -1.60,-1.48 -1.40,-1.65 -1.20,-1.82 -0.96,-1.94 -0.73,-2.06 -0.47,-2.11 -0.21,-2.17 0.04,-2.16 0.30,-2.16 0.30,-2.16 L 0.30,-2.16 Z"></path></g></svg>