<svg version="1.1" xmlns="http://www.w3.org/2000/svg" viewBox="0 0 522 193" width="522" height="193"><!-- svg-source:excalidraw --><metadata></metadata><defs><style class="style-fonts">
      </style></defs><rect x="0" y="0" width="522" height="193" fill="#00000000"></rect><g transform="translate(29 10) rotate(0 2 86.5)" stroke="none"><path fill="#ffffff" d="M 3.60,-0.60 Q 3.60,-0.60 4.21,2.84 4.82,6.28 5.45,9.14 6.08,11.99 6.68,14.96 7.27,17.92 7.80,21.23 8.33,24.53 8.82,27.95 9.31,31.37 9.68,35.46 10.04,39.56 10.38,43.90 10.73,48.23 11.11,52.97 11.50,57.70 11.91,62.29 12.32,66.88 12.48,72.10 12.64,77.32 12.69,82.40 12.73,87.48 12.74,92.52 12.74,97.55 12.73,102.86 12.73,108.16 12.13,113.72 11.54,119.28 10.70,124.25 9.86,129.21 8.61,133.73 7.36,138.24 6.32,142.13 5.27,146.02 4.35,149.46 3.42,152.90 2.55,155.67 1.68,158.43 0.82,161.03 -0.03,163.63 -0.53,166.98 -1.04,170.34 -1.26,172.08 -1.48,173.83 -1.73,174.53 -1.98,175.23 -2.44,175.82 -2.90,176.40 -3.53,176.80 -4.15,177.21 -4.87,177.39 -5.59,177.57 -6.34,177.52 -7.08,177.46 -7.76,177.17 -8.45,176.88 -9.00,176.39 -9.56,175.90 -9.93,175.25 -10.30,174.61 -10.44,173.88 -10.59,173.15 -10.49,172.41 -10.40,171.67 -10.07,171.00 -9.74,170.34 -9.22,169.81 -8.70,169.28 -8.03,168.94 -7.37,168.61 -6.63,168.50 -5.90,168.40 -5.17,168.54 -4.44,168.67 -3.79,169.03 -3.14,169.40 -2.64,169.95 -2.14,170.50 -1.84,171.18 -1.54,171.86 -1.48,172.60 -1.41,173.34 -1.59,174.06 -1.76,174.79 -2.16,175.42 -2.56,176.04 -3.13,176.51 -3.71,176.98 -4.41,177.24 -5.10,177.50 -5.85,177.53 -6.59,177.55 -7.30,177.34 -8.01,177.12 -8.62,176.69 -9.23,176.26 -9.66,175.66 -10.10,175.06 -10.32,174.35 -10.55,173.64 -10.53,172.90 -10.51,172.15 -10.51,172.16 -10.51,172.16 -10.04,170.17 -9.56,168.18 -8.27,164.52 -6.99,160.87 -5.83,158.40 -4.68,155.93 -3.52,153.52 -2.36,151.12 -1.20,147.82 -0.05,144.52 1.07,140.67 2.20,136.81 3.37,132.57 4.54,128.32 5.34,123.52 6.13,118.71 6.67,113.44 7.22,108.17 7.18,102.88 7.14,97.60 7.06,92.59 6.99,87.58 6.86,82.57 6.72,77.56 6.45,72.56 6.19,67.55 5.60,62.97 5.02,58.39 4.40,53.71 3.79,49.04 3.13,44.77 2.47,40.50 1.83,36.53 1.19,32.57 0.68,29.18 0.17,25.79 -0.31,22.56 -0.79,19.32 -1.22,16.37 -1.65,13.41 -2.08,10.46 -2.52,7.51 -3.06,4.05 -3.60,0.60 -3.62,0.16 -3.64,-0.27 -3.56,-0.71 -3.47,-1.14 -3.28,-1.54 -3.10,-1.94 -2.82,-2.28 -2.54,-2.62 -2.19,-2.89 -1.84,-3.16 -1.43,-3.33 -1.03,-3.51 -0.59,-3.58 -0.16,-3.65 0.27,-3.62 0.71,-3.58 1.13,-3.44 1.55,-3.31 1.92,-3.07 2.30,-2.84 2.60,-2.52 2.91,-2.20 3.13,-1.82 3.36,-1.44 3.48,-1.02 3.60,-0.60 3.60,-0.60 L 3.60,-0.60 Z"></path></g><g transform="translate(10 22) rotate(0 55 71)" stroke="none"><path fill="#ffffff" d="M -1.16,-2.92 Q -1.16,-2.92 3.17,-4.57 7.51,-6.23 11.76,-7.53 16.01,-8.83 20.52,-9.67 25.04,-10.52 29.84,-11.15 34.64,-11.79 39.93,-12.05 45.21,-12.32 50.03,-12.42 54.86,-12.52 60.15,-12.27 65.44,-12.03 70.44,-11.03 75.43,-10.03 79.54,-9.05 83.65,-8.07 87.07,-6.86 90.49,-5.66 93.44,-3.58 96.39,-1.51 98.42,0.62 100.45,2.76 101.59,4.87 102.72,6.98 103.29,9.62 103.85,12.27 103.46,15.58 103.08,18.88 101.56,22.29 100.04,25.70 97.80,29.09 95.56,32.48 92.35,35.97 89.14,39.46 85.61,42.41 82.09,45.35 78.33,48.51 74.58,51.66 70.22,54.53 65.86,57.39 61.60,59.50 57.34,61.60 52.81,63.08 48.28,64.57 45.17,65.42 42.06,66.26 39.72,66.99 37.37,67.73 35.27,68.33 33.17,68.93 32.67,68.95 32.18,68.96 31.69,68.85 31.21,68.74 30.76,68.52 30.31,68.30 29.93,67.98 29.55,67.66 29.26,67.26 28.97,66.85 28.78,66.39 28.59,65.93 28.52,65.44 28.45,64.95 28.50,64.45 28.55,63.96 28.71,63.49 28.88,63.02 29.15,62.60 29.42,62.18 29.79,61.85 30.15,61.51 30.59,61.27 31.02,61.02 31.50,60.89 31.98,60.76 37.07,59.35 42.15,57.94 45.27,57.78 48.38,57.63 52.31,57.72 56.23,57.82 60.34,58.23 64.44,58.63 68.35,59.40 72.25,60.18 76.79,61.52 81.32,62.87 85.33,64.35 89.33,65.83 92.94,67.64 96.54,69.45 99.50,71.77 102.45,74.08 104.95,76.91 107.45,79.74 109.04,82.25 110.63,84.76 111.67,88.14 112.72,91.52 113.19,94.81 113.66,98.10 113.54,101.72 113.42,105.34 112.34,109.43 111.26,113.52 109.55,117.16 107.85,120.80 105.56,124.35 103.26,127.90 101.16,130.90 99.07,133.91 95.89,136.81 92.71,139.71 88.94,142.31 85.17,144.91 80.78,146.93 76.39,148.95 71.85,150.37 67.31,151.78 62.71,152.66 58.10,153.54 53.18,153.90 48.25,154.26 43.86,154.39 39.48,154.53 34.85,154.00 30.22,153.46 26.30,153.01 22.38,152.57 19.47,152.26 16.57,151.95 14.36,151.63 12.16,151.31 12.62,151.02 13.09,150.73 12.65,150.57 12.22,150.40 11.84,150.14 11.45,149.88 11.15,149.53 10.84,149.19 10.62,148.78 10.41,148.37 10.29,147.92 10.18,147.47 10.18,147.01 10.18,146.54 10.29,146.09 10.40,145.64 10.61,145.23 10.83,144.82 11.13,144.47 11.44,144.12 11.82,143.86 12.20,143.60 12.63,143.43 13.07,143.27 13.53,143.21 13.99,143.15 14.45,143.21 14.91,143.26 14.79,143.24 14.68,143.21 15.26,143.42 15.85,143.63 16.34,144.01 16.83,144.40 17.17,144.92 17.51,145.44 17.67,146.04 17.82,146.64 17.78,147.26 17.73,147.88 17.50,148.46 17.26,149.03 16.85,149.50 16.44,149.96 15.90,150.28 15.36,150.59 14.75,150.71 14.14,150.84 13.52,150.76 12.91,150.68 12.35,150.41 11.79,150.14 11.34,149.71 10.90,149.27 10.62,148.72 10.33,148.16 10.24,147.55 10.15,146.93 10.26,146.32 10.37,145.71 10.67,145.16 10.97,144.62 11.43,144.20 11.89,143.78 12.46,143.53 13.03,143.28 13.65,143.22 14.27,143.16 14.87,143.30 15.48,143.45 16.00,143.78 16.53,144.11 16.93,144.59 17.32,145.07 17.54,145.65 17.76,146.23 17.79,146.85 17.81,147.47 17.63,148.07 17.46,148.67 17.10,149.17 16.74,149.68 16.24,150.05 15.74,150.42 15.15,150.61 14.55,150.80 13.82,150.76 13.09,150.73 12.65,150.57 12.22,150.40 11.84,150.14 11.45,149.88 11.15,149.53 10.84,149.19 10.62,148.78 10.41,148.37 10.29,147.92 10.18,147.47 10.18,147.01 10.18,146.54 10.29,146.09 10.40,145.64 10.61,145.23 10.83,144.82 11.13,144.47 11.44,144.13 11.82,143.86 12.20,143.60 12.63,143.43 13.07,143.27 13.52,143.21 13.98,143.15 14.44,143.21 14.90,143.26 16.31,144.39 17.72,145.52 20.42,146.21 23.12,146.91 26.98,147.47 30.85,148.03 35.07,148.51 39.29,148.99 43.54,148.80 47.80,148.62 52.39,148.23 56.97,147.84 61.21,146.95 65.46,146.05 69.57,144.66 73.68,143.26 77.46,141.37 81.24,139.48 84.52,136.94 87.80,134.40 90.37,131.97 92.95,129.55 94.93,126.77 96.92,124.00 98.81,120.73 100.70,117.45 102.08,114.50 103.46,111.54 104.22,108.24 104.99,104.94 105.15,102.00 105.31,99.05 105.08,96.35 104.86,93.66 104.27,91.08 103.69,88.50 102.79,86.46 101.89,84.42 99.89,81.96 97.89,79.49 95.67,77.46 93.45,75.44 90.29,73.80 87.13,72.16 83.33,70.93 79.54,69.71 75.19,68.74 70.83,67.78 67.37,67.18 63.90,66.57 60.12,66.45 56.35,66.32 52.55,66.52 48.76,66.72 45.89,66.81 43.02,66.90 40.65,67.01 38.28,67.11 35.73,68.02 33.17,68.93 32.67,68.95 32.18,68.96 31.69,68.85 31.21,68.74 30.76,68.52 30.31,68.30 29.93,67.98 29.55,67.66 29.26,67.26 28.97,66.85 28.78,66.39 28.59,65.93 28.52,65.44 28.45,64.95 28.50,64.45 28.55,63.96 28.71,63.49 28.88,63.02 29.15,62.60 29.42,62.18 29.79,61.85 30.15,61.51 30.59,61.27 31.02,61.02 31.50,60.89 31.98,60.76 33.87,60.70 35.77,60.64 38.26,60.28 40.75,59.91 43.61,59.52 46.46,59.13 50.56,57.72 54.67,56.31 58.53,54.30 62.40,52.28 66.34,49.52 70.27,46.77 73.86,43.45 77.45,40.14 80.39,37.33 83.33,34.53 85.85,31.26 88.37,27.98 90.14,24.92 91.91,21.87 93.59,17.59 95.27,13.32 94.99,10.33 94.71,7.34 93.47,5.50 92.24,3.65 90.20,1.76 88.16,-0.12 85.27,-1.48 82.37,-2.83 78.37,-3.82 74.38,-4.81 69.78,-5.74 65.19,-6.67 60.09,-6.89 54.99,-7.12 50.24,-6.99 45.50,-6.86 40.44,-6.58 35.39,-6.29 30.75,-5.63 26.11,-4.97 21.94,-4.13 17.76,-3.30 13.75,-1.98 9.73,-0.66 5.45,1.12 1.16,2.92 0.80,3.01 0.43,3.11 0.05,3.12 -0.32,3.12 -0.69,3.04 -1.06,2.96 -1.40,2.79 -1.73,2.62 -2.02,2.37 -2.31,2.12 -2.53,1.81 -2.75,1.51 -2.89,1.15 -3.03,0.80 -3.09,0.43 -3.14,0.05 -3.10,-0.32 -3.06,-0.69 -2.93,-1.05 -2.81,-1.41 -2.60,-1.72 -2.39,-2.04 -2.11,-2.29 -1.83,-2.55 -1.50,-2.73 -1.16,-2.92 -1.16,-2.92 L -1.16,-2.92 Z"></path></g><g transform="translate(157 84) rotate(0 28.5 42.5)" stroke="none"><path fill="#ffffff" d="M 3.69,0 Q 3.69,0 3.77,3.16 3.86,6.32 3.84,9.96 3.81,13.61 3.75,17.46 3.70,21.31 3.56,25.53 3.42,29.75 3.42,33.56 3.42,37.37 3.03,41.68 2.64,46.00 1.93,49.98 1.22,53.96 0.36,57.69 -0.48,61.41 -1.40,65.01 -2.32,68.62 -3.57,71.84 -4.81,75.06 -5.81,77.57 -6.80,80.09 -9.82,83.57 -12.83,87.05 -11.82,86.53 -10.81,86.01 -11.20,86.40 -11.60,86.80 -12.08,87.08 -12.56,87.37 -13.09,87.53 -13.63,87.69 -14.18,87.72 -14.74,87.75 -15.29,87.65 -15.84,87.54 -16.34,87.31 -16.85,87.08 -17.29,86.73 -17.72,86.38 -18.07,85.94 -18.41,85.50 -18.63,84.99 -18.86,84.48 -18.95,83.93 -19.05,83.38 -19.01,82.83 -18.98,82.27 -18.81,81.74 -18.64,81.21 -18.35,80.73 -18.05,80.26 -17.41,77.12 -16.77,73.98 -15.49,71.03 -14.21,68.08 -12.74,64.76 -11.26,61.43 -9.65,57.75 -8.03,54.07 -6.05,49.90 -4.07,45.73 -2.00,41.65 0.05,37.56 2.48,33.93 4.91,30.31 8.12,26.95 11.33,23.59 14.82,20.94 18.31,18.28 21.96,16.43 25.60,14.58 29.30,13.43 32.99,12.28 37.33,11.86 41.67,11.43 45.06,11.40 48.45,11.37 52.07,11.95 55.70,12.54 58.93,13.66 62.16,14.78 65.63,16.33 69.09,17.87 71.38,20.22 73.66,22.56 74.68,24.56 75.71,26.55 76.30,27.71 76.90,28.87 77.11,29.71 77.32,30.55 77.25,31.41 77.18,32.27 76.84,33.07 76.50,33.86 75.93,34.51 75.35,35.15 74.60,35.58 73.85,36.01 73.00,36.17 72.15,36.33 71.29,36.22 70.44,36.10 69.66,35.72 68.89,35.34 68.28,34.73 67.66,34.12 67.28,33.35 66.89,32.57 66.77,31.72 66.66,30.86 66.82,30.01 66.98,29.16 67.40,28.41 67.83,27.66 68.47,27.08 69.11,26.50 69.90,26.16 70.70,25.81 71.56,25.74 72.42,25.67 73.26,25.88 74.10,26.08 74.83,26.55 75.55,27.01 76.10,27.68 76.64,28.36 76.94,29.17 77.24,29.98 77.26,30.84 77.29,31.71 77.04,32.53 76.78,33.36 76.28,34.06 75.78,34.77 75.08,35.27 74.38,35.78 73.55,36.03 72.73,36.29 71.86,36.26 71.00,36.24 70.19,35.95 69.37,35.65 68.70,35.11 68.03,34.57 67.56,33.84 67.09,33.11 67.09,33.12 67.09,33.12 65.77,29.29 64.45,25.46 61.91,23.67 59.36,21.88 56.86,20.75 54.36,19.62 51.28,18.96 48.19,18.30 45.26,18.05 42.32,17.80 38.55,18.21 34.77,18.62 31.55,19.44 28.32,20.26 25.16,21.69 22.00,23.13 18.94,25.49 15.89,27.84 13.16,30.88 10.44,33.91 8.38,37.20 6.32,40.49 4.59,44.57 2.86,48.65 1.31,52.85 -0.23,57.06 -1.49,60.92 -2.76,64.78 -4.02,68.37 -5.27,71.96 -6.36,74.46 -7.44,76.96 -8.23,79.21 -9.01,81.46 -9.91,83.74 -10.81,86.01 -11.20,86.40 -11.60,86.79 -12.08,87.08 -12.56,87.37 -13.09,87.53 -13.63,87.69 -14.18,87.72 -14.74,87.75 -15.29,87.65 -15.84,87.54 -16.34,87.31 -16.85,87.08 -17.29,86.73 -17.72,86.39 -18.06,85.94 -18.41,85.50 -18.63,84.99 -18.86,84.48 -18.95,83.93 -19.05,83.38 -19.01,82.83 -18.98,82.27 -18.81,81.74 -18.64,81.21 -18.35,80.73 -18.05,80.26 -15.98,78.53 -13.90,76.80 -12.67,74.51 -11.44,72.21 -10.16,69.54 -8.87,66.86 -7.90,63.36 -6.93,59.86 -6.04,56.33 -5.16,52.79 -4.47,49.17 -3.79,45.56 -3.60,41.46 -3.42,37.37 -3.42,33.56 -3.42,29.75 -3.56,25.53 -3.70,21.31 -3.75,17.46 -3.81,13.61 -3.84,9.96 -3.86,6.32 -3.77,3.16 -3.69,0 -3.64,-0.44 -3.58,-0.88 -3.43,-1.30 -3.27,-1.71 -3.01,-2.08 -2.76,-2.45 -2.43,-2.74 -2.09,-3.04 -1.70,-3.24 -1.31,-3.45 -0.87,-3.56 -0.44,-3.66 0.00,-3.66 0.44,-3.66 0.87,-3.56 1.31,-3.45 1.70,-3.24 2.10,-3.04 2.43,-2.74 2.76,-2.45 3.02,-2.08 3.27,-1.71 3.43,-1.30 3.58,-0.88 3.64,-0.44 3.69,0.00 3.69,0.00 L 3.69,0 Z"></path></g><g transform="translate(228 138) rotate(0 35.5 -4.5)" stroke="none"><path fill="#ffffff" d="M 0.28,-3.71 Q 0.28,-3.71 4.01,-3.40 7.74,-3.08 10.97,-3.53 14.21,-3.98 18.25,-4.61 22.28,-5.23 25.63,-6.15 28.98,-7.06 32.66,-8.23 36.34,-9.39 40.24,-10.70 44.13,-12.00 48.01,-13.62 51.90,-15.24 54.53,-16.89 57.16,-18.54 59.97,-20.39 62.79,-22.24 64.48,-24.26 66.17,-26.29 67.16,-28.91 68.15,-31.54 65.79,-31.93 63.43,-32.32 59.64,-32.15 55.85,-31.98 53.61,-31.01 51.37,-30.05 49.05,-28.97 46.73,-27.90 43.91,-26.28 41.08,-24.67 37.08,-22.40 33.08,-20.14 29.00,-17.80 24.91,-15.46 21.04,-12.37 17.16,-9.28 14.11,-6.08 11.06,-2.88 8.66,0.62 6.26,4.13 5.13,7.21 4.01,10.30 3.29,13.52 2.57,16.74 2.72,18.99 2.86,21.24 5.99,22.54 9.13,23.83 12.01,23.69 14.90,23.55 19.12,23.46 23.33,23.37 27.60,22.86 31.87,22.36 36.71,21.90 41.55,21.44 45.57,20.97 49.60,20.50 53.44,20.23 57.28,19.96 60.02,19.63 62.77,19.30 63.36,19.36 63.96,19.42 64.51,19.66 65.05,19.91 65.49,20.32 65.93,20.73 66.21,21.26 66.50,21.79 66.60,22.38 66.70,22.97 66.61,23.56 66.52,24.15 66.24,24.68 65.96,25.22 65.53,25.63 65.10,26.05 64.56,26.30 64.01,26.56 63.42,26.63 62.82,26.70 62.24,26.57 61.65,26.45 61.13,26.14 60.62,25.84 60.23,25.38 59.83,24.93 59.61,24.37 59.38,23.82 59.35,23.22 59.31,22.62 59.46,22.04 59.62,21.46 59.95,20.97 60.29,20.47 60.76,20.10 61.24,19.73 61.80,19.54 62.37,19.34 62.97,19.34 63.57,19.33 64.14,19.52 64.71,19.71 65.19,20.07 65.67,20.43 66.01,20.92 66.35,21.41 66.51,21.99 66.68,22.57 66.65,23.17 66.62,23.77 66.40,24.32 66.18,24.88 65.80,25.34 65.41,25.80 64.90,26.11 64.39,26.43 63.81,26.56 63.22,26.69 63.22,26.69 63.22,26.69 60.46,26.70 57.70,26.71 54.09,26.90 50.48,27.10 46.45,27.71 42.41,28.31 37.76,29.05 33.11,29.79 28.58,30.75 24.06,31.71 19.75,32.35 15.44,33.00 11.80,33.23 8.16,33.47 5.24,32.98 2.33,32.49 0.30,31.21 -1.72,29.92 -3.03,27.63 -4.34,25.34 -4.48,23.19 -4.63,21.04 -4.33,18.08 -4.04,15.12 -3.04,11.49 -2.04,7.86 -0.49,4.30 1.06,0.73 3.62,-3.27 6.18,-7.29 9.39,-10.98 12.59,-14.67 16.67,-18.32 20.75,-21.97 24.56,-24.66 28.37,-27.35 32.12,-30.15 35.87,-32.96 39.12,-35.16 42.36,-37.36 44.84,-38.49 47.32,-39.62 50.97,-41.14 54.62,-42.66 57.28,-42.86 59.94,-43.05 62.78,-42.82 65.61,-42.58 68.11,-41.80 70.60,-41.01 72.46,-39.53 74.32,-38.06 75.62,-35.39 76.92,-32.71 75.79,-28.91 74.66,-25.11 73.13,-23.13 71.59,-21.15 69.07,-18.75 66.54,-16.34 63.50,-14.52 60.46,-12.71 57.42,-11.15 54.38,-9.60 50.35,-7.74 46.31,-5.87 42.40,-4.39 38.48,-2.92 34.61,-1.59 30.74,-0.26 27.14,0.62 23.54,1.50 19.33,2.41 15.13,3.32 11.17,3.78 7.20,4.23 3.46,3.97 -0.28,3.71 -0.72,3.63 -1.16,3.54 -1.57,3.35 -1.98,3.15 -2.33,2.87 -2.67,2.59 -2.95,2.23 -3.22,1.87 -3.40,1.46 -3.57,1.05 -3.65,0.60 -3.72,0.16 -3.69,-0.28 -3.65,-0.73 -3.51,-1.15 -3.37,-1.58 -3.13,-1.96 -2.89,-2.34 -2.57,-2.66 -2.25,-2.97 -1.86,-3.19 -1.47,-3.42 -1.04,-3.55 -0.61,-3.67 -0.16,-3.69 0.28,-3.71 0.28,-3.71 L 0.28,-3.71 Z"></path></g><g transform="translate(375 103) rotate(0 -1 32)" stroke="none"><path fill="#ffffff" d="M 1.23,4.54 Q 1.23,4.54 -1.93,5.36 -5.10,6.18 -8.11,7.08 -11.12,7.98 -13.75,8.95 -16.38,9.92 -18.33,11.09 -20.28,12.26 -22.89,13.86 -25.51,15.46 -27.57,17.17 -29.63,18.88 -31.33,20.51 -33.03,22.13 -34.70,24.25 -36.38,26.37 -37.75,30.01 -39.12,33.66 -39.61,35.76 -40.11,37.87 -39.77,40.33 -39.44,42.78 -37.47,44.71 -35.50,46.65 -32.71,47.62 -29.91,48.60 -26.08,49.27 -22.25,49.95 -17.90,49.47 -13.56,48.98 -11.09,48.00 -8.63,47.02 -6.24,45.93 -3.86,44.85 -1.42,43.26 1.01,41.67 2.74,39.97 4.47,38.26 6.03,36.43 7.59,34.60 8.59,32.72 9.60,30.84 10.23,28.65 10.87,26.46 11.26,21.80 11.66,17.15 11.68,14.79 11.70,12.43 11.58,9.33 11.46,6.24 11.35,4.61 11.24,2.98 11.32,2.30 11.41,1.61 11.66,0.96 11.90,0.31 12.30,-0.25 12.70,-0.82 13.22,-1.28 13.74,-1.74 14.35,-2.06 14.97,-2.38 15.64,-2.54 16.32,-2.70 17.01,-2.70 17.71,-2.70 18.38,-2.53 19.05,-2.36 19.67,-2.04 20.28,-1.71 20.80,-1.25 21.31,-0.79 21.71,-0.22 22.10,0.34 22.34,0.99 22.59,1.64 22.67,2.33 22.75,3.02 23.52,6.07 24.29,9.11 25.25,12.47 26.20,15.83 26.64,19.22 27.09,22.61 27.51,25.28 27.93,27.95 28.38,30.52 28.84,33.09 29.86,36.87 30.88,40.65 32.08,43.79 33.28,46.93 34.63,49.01 35.98,51.09 38.22,52.98 40.46,54.87 43.65,56.64 46.84,58.41 47.66,59.01 48.47,59.61 49.06,60.44 49.64,61.27 49.93,62.24 50.21,63.21 50.18,64.23 50.14,65.24 49.78,66.19 49.42,67.14 48.78,67.92 48.13,68.70 47.27,69.24 46.41,69.78 45.43,70.01 44.44,70.25 43.43,70.16 42.42,70.06 41.49,69.65 40.56,69.24 39.82,68.56 39.07,67.87 38.58,66.98 38.09,66.10 37.91,65.10 37.73,64.10 37.87,63.10 38.02,62.09 38.48,61.19 38.94,60.28 39.67,59.58 40.39,58.87 41.30,58.42 42.22,57.98 43.22,57.86 44.23,57.73 45.22,57.93 46.22,58.13 47.10,58.64 47.97,59.15 48.64,59.91 49.31,60.67 49.70,61.61 50.09,62.55 50.17,63.56 50.24,64.57 49.98,65.55 49.73,66.53 49.17,67.38 48.62,68.23 47.82,68.86 47.02,69.48 46.07,69.82 45.11,70.16 44.10,70.18 43.08,70.20 42.12,69.89 41.15,69.58 41.15,69.58 41.15,69.58 38.18,67.97 35.22,66.36 32.52,64.00 29.81,61.63 27.12,58.52 24.42,55.41 23.40,53.46 22.38,51.51 21.50,49.32 20.62,47.13 19.65,43.32 18.69,39.51 18.18,37.38 17.68,35.24 17.13,32.63 16.59,30.03 16.02,27.27 15.45,24.52 14.41,20.15 13.38,15.77 12.56,12.35 11.74,8.93 11.49,5.96 11.24,2.99 11.32,2.30 11.41,1.61 11.66,0.96 11.90,0.31 12.30,-0.25 12.70,-0.82 13.22,-1.28 13.74,-1.74 14.35,-2.06 14.97,-2.38 15.64,-2.54 16.32,-2.70 17.01,-2.70 17.70,-2.70 18.38,-2.53 19.05,-2.36 19.66,-2.04 20.28,-1.72 20.80,-1.25 21.31,-0.79 21.71,-0.22 22.10,0.34 22.34,0.99 22.59,1.64 22.67,2.33 22.75,3.02 22.62,4.67 22.49,6.32 22.29,9.52 22.10,12.71 21.99,15.19 21.88,17.67 21.75,20.93 21.61,24.19 21.12,26.84 20.62,29.50 19.57,32.70 18.52,35.90 16.90,38.58 15.29,41.26 13.39,43.40 11.49,45.54 9.14,47.76 6.79,49.99 3.69,52.23 0.59,54.48 -1.93,55.66 -4.47,56.83 -8.16,58.46 -11.85,60.09 -14.59,60.50 -17.32,60.91 -20.32,61.11 -23.32,61.31 -26.42,60.99 -29.52,60.66 -31.65,60.00 -33.78,59.34 -36.05,58.46 -38.31,57.58 -40.77,56.13 -43.22,54.67 -45.22,52.57 -47.22,50.47 -48.57,47.98 -49.92,45.49 -50.39,42.57 -50.86,39.66 -50.47,37.46 -50.08,35.26 -49.35,32.72 -48.63,30.19 -47.68,27.87 -46.74,25.55 -45.32,22.99 -43.90,20.44 -41.71,17.70 -39.52,14.96 -37.54,13.27 -35.56,11.58 -33.02,9.55 -30.48,7.52 -27.67,5.74 -24.87,3.95 -22.18,2.57 -19.50,1.19 -16.65,0.21 -13.80,-0.76 -10.67,-1.74 -7.54,-2.73 -4.38,-3.63 -1.23,-4.54 -0.67,-4.62 -0.11,-4.70 0.44,-4.65 1.01,-4.59 1.54,-4.40 2.08,-4.22 2.55,-3.90 3.03,-3.59 3.42,-3.18 3.80,-2.76 4.08,-2.27 4.35,-1.77 4.50,-1.22 4.65,-0.68 4.67,-0.11 4.68,0.45 4.56,1.00 4.44,1.56 4.18,2.06 3.93,2.57 3.57,3.01 3.20,3.44 2.74,3.77 2.28,4.11 1.76,4.32 1.23,4.54 1.23,4.54 L 1.23,4.54 Z"></path></g><g transform="translate(482 103) rotate(0 -6.5 -8)" stroke="none"><path fill="#ffffff" d="M -0.44,4.85 Q -0.44,4.85 -3.60,4.52 -6.75,4.19 -9.15,4.14 -11.55,4.08 -13.68,4.10 -15.82,4.13 -17.92,4.64 -20.02,5.15 -22.34,5.90 -24.66,6.66 -27.46,8.52 -30.26,10.39 -31.66,12.34 -33.06,14.29 -34.25,16.49 -35.45,18.70 -36.18,21.24 -36.91,23.78 -37.24,26.44 -37.56,29.10 -37.69,31.67 -37.81,34.24 -37.64,37.10 -37.48,39.96 -36.86,42.34 -36.25,44.71 -35.05,47.14 -33.85,49.58 -32.30,51.60 -30.76,53.63 -28.84,55.52 -26.92,57.40 -23.65,58.37 -20.38,59.34 -16.75,58.61 -13.11,57.89 -10.93,56.56 -8.75,55.23 -6.34,53.36 -3.93,51.48 -1.11,48.90 1.69,46.32 4.64,42.82 7.59,39.31 10.35,35.56 13.10,31.82 15.36,27.02 17.61,22.22 19.48,17.31 21.36,12.40 22.72,6.44 24.08,0.48 24.97,-5.74 25.86,-11.98 26.25,-18.31 26.65,-24.63 26.83,-30.20 27.00,-35.78 27.09,-41.30 27.17,-46.83 27.21,-51.19 27.26,-55.55 26.91,-59.31 26.56,-63.07 25.96,-65.73 25.36,-68.40 24.72,-70.61 24.08,-72.83 22.99,-74.73 21.90,-76.63 21.61,-77.27 21.32,-77.91 21.13,-78.42 20.94,-78.93 20.88,-79.46 20.82,-80.00 20.89,-80.54 20.95,-81.07 21.15,-81.58 21.35,-82.08 21.66,-82.53 21.97,-82.97 22.37,-83.32 22.78,-83.68 23.26,-83.93 23.74,-84.18 24.27,-84.30 24.79,-84.43 25.33,-84.43 25.88,-84.42 26.40,-84.29 26.92,-84.16 27.40,-83.90 27.88,-83.65 28.28,-83.28 28.68,-82.92 28.99,-82.48 29.29,-82.03 29.22,-77.92 29.16,-73.82 29.12,-71.61 29.07,-69.41 28.88,-65.86 28.69,-62.31 28.44,-58.20 28.18,-54.09 27.97,-49.75 27.76,-45.41 27.31,-40.87 26.86,-36.32 26.63,-31.35 26.40,-26.38 26.27,-21.09 26.13,-15.81 26.05,-10.40 25.97,-4.99 25.92,0.46 25.87,5.92 26.12,11.62 26.37,17.32 26.46,22.40 26.56,27.48 27.16,32.66 27.76,37.83 28.36,41.78 28.95,45.73 29.38,48.93 29.80,52.13 30.37,54.45 30.95,56.78 32.01,59.99 33.08,63.19 33.10,63.87 33.12,64.54 32.92,65.18 32.73,65.83 32.34,66.38 31.95,66.92 31.40,67.32 30.86,67.71 30.22,67.91 29.57,68.11 28.90,68.10 28.23,68.08 27.60,67.85 26.96,67.62 26.44,67.20 25.91,66.78 25.55,66.22 25.18,65.65 25.02,65.00 24.85,64.35 24.90,63.68 24.95,63.01 25.22,62.39 25.48,61.77 25.93,61.27 26.38,60.76 26.96,60.43 27.55,60.10 28.21,59.97 28.87,59.84 29.53,59.93 30.20,60.01 30.80,60.31 31.41,60.61 31.89,61.08 32.36,61.56 32.66,62.16 32.97,62.76 33.06,63.43 33.15,64.09 33.03,64.75 32.90,65.41 32.58,66.00 32.25,66.59 31.75,67.04 31.25,67.49 30.63,67.76 30.01,68.03 29.34,68.08 28.67,68.14 28.02,67.98 27.37,67.82 26.80,67.46 26.23,67.10 25.81,66.58 25.38,66.06 25.15,65.43 24.91,64.79 24.91,64.79 24.91,64.80 24.41,61.34 23.90,57.88 23.70,55.25 23.49,52.61 23.45,49.55 23.40,46.50 22.89,42.48 22.37,38.47 21.72,33.04 21.07,27.61 20.93,22.60 20.79,17.60 20.47,11.75 20.15,5.91 20.12,0.44 20.09,-5.02 20.05,-10.44 20.01,-15.87 19.98,-21.20 19.96,-26.54 19.97,-31.66 19.99,-36.78 20.13,-41.10 20.26,-45.43 20.07,-49.78 19.88,-54.14 19.68,-58.30 19.47,-62.46 19.40,-66.20 19.33,-69.95 20.32,-73.93 21.32,-77.91 21.13,-78.42 20.94,-78.93 20.88,-79.46 20.82,-80.00 20.89,-80.54 20.95,-81.07 21.15,-81.58 21.34,-82.08 21.66,-82.53 21.97,-82.97 22.37,-83.32 22.78,-83.68 23.26,-83.93 23.74,-84.18 24.27,-84.30 24.79,-84.43 25.33,-84.43 25.87,-84.42 26.40,-84.29 26.92,-84.16 27.40,-83.90 27.88,-83.65 28.28,-83.29 28.68,-82.92 28.99,-82.48 29.29,-82.03 29.42,-81.29 29.54,-80.54 30.41,-77.40 31.27,-74.25 31.55,-71.79 31.82,-69.33 32.03,-66.40 32.24,-63.48 32.45,-59.50 32.65,-55.52 32.64,-51.14 32.62,-46.76 32.57,-41.19 32.52,-35.62 32.39,-29.97 32.26,-24.31 31.92,-17.76 31.57,-11.21 30.74,-4.72 29.90,1.76 28.55,8.14 27.20,14.52 25.41,19.71 23.61,24.91 21.28,30.35 18.95,35.79 16.33,39.90 13.72,44.01 10.80,48.17 7.87,52.33 4.99,55.61 2.11,58.89 -0.77,61.33 -3.65,63.77 -7.15,65.83 -10.66,67.89 -13.81,68.57 -16.97,69.25 -19.72,69.19 -22.47,69.13 -25.46,68.30 -28.46,67.46 -30.99,65.83 -33.53,64.19 -35.98,61.75 -38.43,59.31 -40.41,56.56 -42.38,53.81 -44.05,50.43 -45.72,47.04 -46.44,43.85 -47.17,40.65 -47.44,37.17 -47.72,33.68 -47.52,30.80 -47.33,27.91 -46.92,24.50 -46.51,21.09 -45.50,17.47 -44.49,13.85 -42.95,11.01 -41.40,8.18 -39.06,5.04 -36.72,1.90 -34.53,0.41 -32.35,-1.07 -30.04,-2.06 -27.73,-3.05 -24.91,-3.92 -22.09,-4.78 -18.86,-5.38 -15.64,-5.97 -13.35,-5.84 -11.07,-5.72 -8.48,-5.53 -5.89,-5.34 -2.72,-5.10 0.44,-4.85 1.01,-4.73 1.59,-4.60 2.11,-4.35 2.64,-4.09 3.09,-3.71 3.55,-3.34 3.89,-2.86 4.24,-2.39 4.47,-1.85 4.69,-1.30 4.78,-0.72 4.87,-0.14 4.82,0.43 4.76,1.02 4.57,1.57 4.38,2.13 4.06,2.62 3.74,3.12 3.31,3.52 2.88,3.92 2.37,4.21 1.86,4.50 1.29,4.66 0.73,4.82 0.14,4.83 -0.44,4.85 -0.44,4.85 L -0.44,4.85 Z"></path></g></svg>