<svg version="1.1" xmlns="http://www.w3.org/2000/svg" viewBox="0 0 440 124" width="880" height="248"><!-- svg-source:excalidraw --><metadata></metadata><defs><style class="style-fonts">
      </style></defs><rect x="0" y="0" width="440" height="124" fill="#0000"></rect><g transform="translate(16 22) rotate(0 152 34)" stroke="none"><path fill="#ffffff" d="M -2.18,0 Q -2.18,0 -2.18,-1.43 -2.18,-2.87 -2.18,-4.44 -2.18,-6.01 -2.18,-7.52 -2.18,-9.03 -2.18,-10.12 -2.18,-11.22 -2.15,-11.48 -2.12,-11.74 -2.02,-11.98 -1.93,-12.23 -1.78,-12.45 -1.63,-12.66 -1.43,-12.84 -1.24,-13.01 -1.00,-13.14 -0.77,-13.26 -0.51,-13.32 -0.26,-13.39 0.00,-13.39 0.26,-13.39 0.51,-13.32 0.77,-13.26 1.00,-13.14 1.24,-13.01 1.43,-12.84 1.63,-12.66 1.78,-12.45 1.93,-12.23 2.02,-11.98 2.12,-11.74 2.15,-11.48 2.18,-11.21 1.87,-9.33 1.55,-7.44 1.15,-5.21 0.75,-2.98 0.59,0.15 0.44,3.28 0.07,6.74 -0.29,10.20 -0.44,13.59 -0.58,16.98 -0.94,20.25 -1.30,23.51 -1.45,26.25 -1.59,28.98 -1.95,31.69 -2.31,34.40 -2.45,36.32 -2.59,38.23 -2.66,39.90 -2.72,41.56 -2.74,42.84 -2.77,44.12 -3.07,45.31 -3.38,46.50 -3.41,46.76 -3.45,47.02 -3.54,47.26 -3.64,47.51 -3.79,47.72 -3.95,47.94 -4.15,48.11 -4.35,48.28 -4.58,48.40 -4.82,48.52 -5.07,48.58 -5.33,48.64 -5.59,48.64 -5.86,48.63 -6.11,48.57 -6.37,48.50 -6.60,48.38 -6.83,48.25 -7.02,48.07 -7.22,47.89 -7.37,47.68 -7.51,47.46 -7.60,47.21 -7.69,46.96 -7.72,46.70 -7.75,46.44 -7.51,44.98 -7.27,43.53 -7.21,42.04 -7.16,40.56 -6.73,39.38 -6.30,38.21 -6.25,37.12 -6.20,36.02 -5.80,35.00 -5.41,33.97 -4.89,32.67 -4.36,31.37 -3.95,30.38 -3.54,29.38 -2.45,27.90 -1.37,26.42 -0.33,25.32 0.69,24.23 1.70,23.21 2.71,22.20 3.73,21.18 4.76,20.16 5.87,19.47 6.97,18.79 8.47,18.36 9.96,17.93 11.69,18.59 13.41,19.25 14.15,20.84 14.90,22.43 15.01,24.08 15.13,25.72 14.82,26.98 14.50,28.24 14.38,29.94 14.25,31.65 14.22,33.59 14.19,35.54 14.19,37.53 14.18,39.52 14.18,41.81 14.18,44.09 14.18,45.21 14.18,46.34 14.41,47.66 14.65,48.99 15.33,49.88 16.01,50.78 17.38,50.90 18.75,51.03 19.74,50.09 20.72,49.15 21.71,47.71 22.71,46.27 23.71,45.23 24.71,44.20 25.64,42.49 26.57,40.78 27.07,39.36 27.57,37.93 27.99,36.79 28.41,35.65 28.87,34.61 29.34,33.57 29.87,31.64 30.40,29.71 30.99,28.27 31.58,26.83 32.09,25.30 32.61,23.78 32.75,23.24 32.89,22.70 33.05,22.49 33.20,22.28 33.41,22.11 33.61,21.94 33.85,21.82 34.08,21.71 34.34,21.65 34.60,21.60 34.86,21.61 35.13,21.62 35.38,21.69 35.63,21.76 35.86,21.89 36.09,22.02 36.28,22.20 36.47,22.38 36.62,22.60 36.76,22.82 36.85,23.07 36.93,23.32 36.95,23.58 36.98,23.85 36.94,24.11 36.90,24.37 36.80,24.61 36.70,24.85 36.08,25.84 35.47,26.84 35.05,29.18 34.63,31.53 34.20,33.50 33.78,35.48 33.30,37.50 32.82,39.53 32.33,41.53 31.84,43.52 31.95,44.63 32.05,45.74 32.62,46.77 33.18,47.80 34.61,48.24 36.03,48.67 37.46,48.20 38.88,47.73 39.81,46.91 40.74,46.10 41.72,45.14 42.71,44.18 43.52,42.73 44.34,41.29 44.78,40.16 45.23,39.03 45.74,37.88 46.26,36.74 46.47,35.02 46.68,33.31 46.73,31.38 46.78,29.44 46.79,28.15 46.80,26.85 46.84,26.59 46.87,26.32 46.97,26.08 47.06,25.83 47.22,25.62 47.37,25.40 47.57,25.23 47.77,25.06 48.00,24.94 48.24,24.82 48.49,24.76 48.75,24.70 49.01,24.70 49.28,24.70 49.53,24.77 49.79,24.83 50.02,24.96 50.25,25.08 50.45,25.26 50.64,25.43 50.79,25.65 50.94,25.87 51.03,26.12 51.12,26.37 51.15,26.63 51.18,26.89 51.18,28.34 51.18,29.78 50.87,31.48 50.57,33.19 50.46,34.57 50.35,35.96 50.00,37.86 49.64,39.76 49.52,41.55 49.39,43.34 49.03,45.41 48.66,47.48 48.53,49.08 48.39,50.68 48.02,52.40 47.65,54.12 47.52,55.53 47.39,56.94 47.03,58.84 46.66,60.75 46.53,62.27 46.39,63.79 46.01,65.25 45.62,66.70 45.10,68.92 44.59,71.14 44.12,72.24 43.65,73.35 43.16,74.39 42.67,75.43 42.18,76.45 41.68,77.47 40.51,79.02 39.35,80.57 37.77,81.27 36.19,81.98 35.00,82.06 33.82,82.15 32.17,81.66 30.52,81.17 29.68,80.09 28.84,79.02 28.28,77.99 27.73,76.97 27.33,75.49 26.92,74.01 27.22,72.23 27.52,70.44 28.08,69.05 28.63,67.67 29.65,66.49 30.66,65.31 31.41,64.47 32.16,63.63 33.20,62.57 34.23,61.51 35.41,60.36 36.60,59.22 37.53,58.27 38.46,57.33 39.34,56.45 40.22,55.58 41.43,54.39 42.63,53.20 43.65,52.68 44.68,52.15 45.65,51.65 46.62,51.14 47.61,50.64 48.60,50.14 49.68,49.12 50.75,48.11 51.74,47.14 52.72,46.17 53.71,44.79 54.69,43.41 55.93,42.02 57.17,40.63 57.92,39.06 58.68,37.48 59.18,36.49 59.67,35.51 60.42,34.58 61.16,33.66 61.68,32.66 62.19,31.66 62.97,30.49 63.74,29.33 64.46,28.48 65.18,27.63 66.21,26.57 67.23,25.51 67.97,24.38 68.71,23.26 69.54,22.33 70.37,21.40 72.55,20.63 74.73,19.85 75.16,20.86 75.59,21.87 75.40,23.23 75.20,24.58 74.76,25.91 74.33,27.23 73.85,28.68 73.36,30.14 72.96,31.26 72.56,32.38 72.42,34.03 72.27,35.68 71.93,37.15 71.58,38.62 71.10,41.09 70.62,43.56 70.11,45.83 69.59,48.11 69.07,49.79 68.55,51.47 68.41,52.83 68.26,54.19 67.89,55.32 67.52,56.44 67.04,58.36 66.57,60.28 66.42,61.57 66.27,62.86 65.89,64.65 65.50,66.44 65.38,67.81 65.25,69.17 64.88,70.31 64.51,71.45 64.37,72.52 64.22,73.59 64.14,73.84 64.06,74.09 63.92,74.31 63.78,74.54 63.59,74.72 63.40,74.90 63.17,75.03 62.94,75.17 62.69,75.24 62.43,75.32 62.17,75.33 61.91,75.34 61.65,75.29 61.39,75.23 61.15,75.12 60.91,75.01 60.71,74.84 60.51,74.68 60.35,74.47 60.19,74.26 60.08,74.01 59.98,73.77 59.94,73.51 59.89,73.25 59.91,72.99 59.93,72.73 59.88,71.40 59.82,70.08 60.15,68.87 60.49,67.65 60.90,66.40 61.31,65.15 61.83,62.77 62.35,60.39 62.80,58.93 63.25,57.46 63.73,55.98 64.21,54.50 64.37,53.20 64.53,51.89 64.94,50.52 65.35,49.14 65.88,46.98 66.40,44.83 66.56,43.08 66.72,41.33 67.09,40.07 67.45,38.81 68.02,37.32 68.60,35.83 69.07,34.87 69.54,33.92 70.53,32.29 71.53,30.67 72.52,29.15 73.52,27.63 74.52,26.13 75.52,24.62 76.52,23.12 77.52,21.62 78.62,20.43 79.72,19.23 81.42,18.63 83.13,18.03 84.18,18.35 85.23,18.67 86.48,19.69 87.73,20.71 88.92,22.20 90.11,23.70 90.46,24.93 90.81,26.16 90.92,27.27 91.04,28.37 91.10,30.44 91.15,32.52 90.83,33.82 90.51,35.12 90.07,36.23 89.62,37.34 89.14,38.39 88.66,39.43 88.17,40.45 87.67,41.48 86.77,42.67 85.87,43.86 84.36,45.17 82.84,46.47 81.41,46.78 79.98,47.09 78.88,47.13 77.78,47.17 76.23,46.75 74.67,46.32 73.59,45.81 72.51,45.30 71.61,44.70 70.72,44.10 70.06,43.32 69.40,42.54 69.17,42.41 68.94,42.28 68.75,42.10 68.56,41.92 68.41,41.70 68.27,41.48 68.18,41.23 68.10,40.98 68.07,40.72 68.05,40.46 68.09,40.20 68.12,39.94 68.22,39.69 68.33,39.45 68.48,39.24 68.64,39.02 68.84,38.85 69.04,38.68 69.28,38.57 69.51,38.45 69.77,38.40 70.03,38.34 70.29,38.35 70.56,38.36 70.81,38.43 71.06,38.50 70.16,40.65 69.26,42.81 69.03,42.69 68.80,42.56 68.61,42.38 68.42,42.20 68.28,41.98 68.13,41.75 68.05,41.51 67.96,41.26 67.93,40.99 67.91,40.73 67.95,40.47 67.99,40.21 68.09,39.97 68.19,39.72 68.34,39.51 68.50,39.30 68.70,39.13 68.90,38.96 69.14,38.84 69.38,38.73 69.63,38.67 69.89,38.62 70.16,38.62 70.42,38.63 70.67,38.70 70.93,38.77 71.90,39.77 72.88,40.77 73.68,42.04 74.49,43.30 75.56,43.53 76.64,43.76 77.73,44.22 78.82,44.69 79.98,44.76 81.14,44.83 82.59,44.36 84.03,43.90 85.38,43.48 86.72,43.06 87.94,42.95 89.16,42.84 90.44,42.45 91.73,42.06 92.95,41.95 94.16,41.84 95.45,41.45 96.73,41.06 97.88,40.74 99.02,40.42 100.37,39.59 101.72,38.76 102.86,38.50 104.00,38.23 105.26,37.12 106.52,36.01 107.52,35.44 108.53,34.87 109.45,33.87 110.37,32.88 111.50,31.60 112.63,30.32 113.18,28.93 113.72,27.55 114.20,26.38 114.68,25.21 112.64,25.09 110.61,24.96 109.06,26.02 107.51,27.08 105.97,28.09 104.42,29.10 103.14,30.62 101.85,32.14 100.76,33.53 99.66,34.92 99.06,36.48 98.46,38.04 98.39,39.15 98.32,40.27 98.26,41.97 98.21,43.66 98.18,44.85 98.15,46.03 99.68,46.79 101.21,47.56 102.45,47.64 103.70,47.73 105.05,47.36 106.40,47.00 107.51,46.54 108.63,46.08 110.16,45.58 111.69,45.08 112.92,44.96 114.15,44.85 115.94,44.45 117.74,44.05 119.04,43.70 120.34,43.34 121.04,42.32 121.75,41.31 122.59,39.70 123.44,38.10 124.03,36.85 124.63,35.60 125.55,33.92 126.47,32.24 127.07,31.16 127.66,30.08 128.17,29.08 128.69,28.08 129.19,27.08 129.69,26.08 130.19,25.08 130.69,24.08 131.31,22.93 131.93,21.79 132.89,20.51 133.86,19.23 135.23,18.22 136.61,17.21 137.83,17.05 139.04,16.89 140.64,16.42 142.24,15.94 143.26,16.31 144.29,16.68 145.47,18.03 146.66,19.39 147.25,20.49 147.84,21.60 147.58,23.42 147.32,25.25 147.26,26.77 147.19,28.29 146.76,29.81 146.32,31.33 146.25,32.40 146.18,33.47 145.60,34.82 145.03,36.16 144.15,37.40 143.26,38.63 142.44,39.61 141.61,40.58 141.41,41.95 141.20,43.32 141.01,44.43 140.82,45.54 142.30,44.82 143.78,44.09 144.78,43.17 145.78,42.25 146.26,41.28 146.75,40.31 147.22,39.21 147.70,38.12 148.20,37.10 148.70,36.08 149.73,34.67 150.77,33.25 152.03,32.38 153.28,31.52 154.29,30.52 155.30,29.53 156.37,28.92 157.45,28.32 158.76,27.61 160.06,26.91 161.14,26.87 162.23,26.82 163.81,26.84 165.40,26.85 167.02,27.77 168.64,28.70 169.72,30.49 170.79,32.28 170.96,33.97 171.12,35.66 171.14,36.91 171.16,38.17 171.16,39.93 171.16,41.70 170.80,42.77 170.43,43.84 169.61,45.12 168.78,46.41 167.61,47.10 166.44,47.80 165.40,48.33 164.36,48.86 162.83,49.39 161.30,49.91 159.98,50.01 158.66,50.10 157.67,49.71 156.67,49.31 155.34,48.42 154.02,47.53 153.11,46.51 152.20,45.49 151.51,44.29 150.82,43.09 150.03,41.81 149.24,40.52 149.24,38.79 149.23,37.06 149.99,35.70 150.75,34.34 151.74,32.87 152.72,31.40 153.71,30.66 154.70,29.92 155.82,29.34 156.95,28.76 158.69,27.97 160.43,27.18 161.76,27.02 163.08,26.86 164.77,27.34 166.46,27.81 167.30,28.89 168.15,29.97 168.70,31.00 169.26,32.02 169.65,33.46 170.04,34.90 170.56,36.45 171.08,38.01 171.12,39.11 171.17,40.21 171.63,41.65 172.09,43.08 172.13,44.15 172.17,45.23 172.93,44.25 173.70,43.27 174.08,42.25 174.47,41.23 174.60,40.12 174.73,39.01 175.14,38.01 175.56,37.01 175.99,35.32 176.43,33.63 176.98,31.84 177.52,30.05 178.05,28.50 178.58,26.95 179.05,25.97 179.53,24.98 180.06,23.85 180.59,22.72 181.00,21.64 181.42,20.56 181.93,19.00 182.45,17.44 182.90,16.46 183.36,15.48 183.88,13.59 184.40,11.70 184.87,10.64 185.34,9.58 185.99,7.64 186.63,5.69 186.42,4.88 186.21,4.06 186.27,3.81 186.33,3.55 186.45,3.32 186.58,3.08 186.75,2.89 186.92,2.69 187.14,2.54 187.35,2.38 187.60,2.29 187.85,2.19 188.11,2.16 188.37,2.13 188.63,2.16 188.89,2.19 189.14,2.28 189.39,2.37 189.60,2.52 189.82,2.67 190.00,2.86 190.17,3.06 190.30,3.29 190.42,3.52 190.49,3.78 190.55,4.04 190.55,4.30 190.56,4.56 189.87,5.66 189.19,6.76 188.89,8.34 188.59,9.91 187.74,11.27 186.88,12.62 186.37,13.78 185.87,14.95 184.99,16.47 184.11,17.99 183.55,19.57 182.99,21.15 182.12,23.12 181.24,25.08 180.62,26.70 179.99,28.32 179.41,29.65 178.83,30.97 178.29,32.12 177.75,33.27 177.24,34.33 176.72,35.38 176.16,37.33 175.60,39.27 175.13,40.34 174.65,41.40 174.17,42.42 173.68,43.44 173.09,45.18 172.49,46.93 172.38,48.08 172.27,49.24 172.06,50.40 171.84,51.55 173.12,51.66 174.40,51.77 175.65,51.33 176.91,50.88 178.18,50.57 179.44,50.25 180.22,49.51 181.00,48.77 182.10,47.69 183.19,46.60 183.97,45.46 184.74,44.32 185.22,43.19 185.70,42.06 186.19,41.09 186.68,40.11 187.41,38.91 188.14,37.71 188.91,36.10 189.68,34.49 190.17,33.04 190.67,31.60 191.18,30.54 191.69,29.49 192.73,28.34 193.77,27.19 195.32,26.59 196.87,25.98 198.64,26.61 200.41,27.25 201.40,28.23 202.40,29.21 203.64,29.46 204.89,29.71 205.90,30.20 206.91,30.70 208.01,32.39 209.11,34.07 208.17,35.39 207.22,36.71 206.27,38.19 205.31,39.67 204.83,40.98 204.36,42.29 203.83,43.54 203.31,44.79 202.80,45.84 202.30,46.89 201.81,47.88 201.31,48.87 202.33,49.33 203.34,49.79 204.80,49.80 206.26,49.81 207.48,49.44 208.69,49.07 210.15,48.13 211.62,47.19 212.17,46.27 212.73,45.35 213.71,43.89 214.69,42.43 215.69,40.93 216.69,39.44 217.69,37.94 218.69,36.44 219.68,35.36 220.68,34.27 221.23,33.31 221.78,32.35 222.75,31.36 223.71,30.38 224.14,29.09 224.58,27.80 225.62,26.15 226.66,24.50 226.74,23.80 226.81,23.09 226.92,22.85 227.02,22.61 227.19,22.40 227.35,22.19 227.56,22.03 227.76,21.87 228.00,21.76 228.24,21.65 228.50,21.60 228.76,21.55 229.02,21.57 229.29,21.59 229.54,21.66 229.79,21.74 230.02,21.88 230.24,22.01 230.43,22.20 230.62,22.38 230.75,22.61 230.89,22.84 230.97,23.09 231.05,23.34 231.06,23.60 231.08,23.86 231.03,24.12 230.99,24.38 230.71,25.57 230.44,26.76 229.51,28.30 228.59,29.84 227.63,31.70 226.67,33.56 226.18,34.54 225.68,35.52 225.05,36.88 224.42,38.24 223.51,39.99 222.59,41.75 221.61,43.28 220.62,44.82 220.46,45.89 220.30,46.96 220.25,48.09 220.20,49.22 221.25,49.01 222.30,48.80 223.78,48.80 225.26,48.81 226.48,48.44 227.69,48.07 228.97,47.25 230.24,46.43 231.11,45.62 231.98,44.80 232.85,43.99 233.71,43.18 234.45,42.40 235.18,41.61 235.94,40.44 236.71,39.27 237.54,38.34 238.37,37.41 239.03,36.41 239.70,35.41 240.25,34.39 240.79,33.37 241.76,32.35 242.74,31.32 243.46,30.48 244.18,29.63 245.39,28.43 246.59,27.22 248.12,26.20 249.65,25.18 250.68,24.66 251.72,24.13 252.93,24.26 254.14,24.38 255.09,26.05 256.05,27.73 255.72,29.66 255.40,31.59 254.45,32.62 253.51,33.65 252.59,35.18 251.68,36.70 250.66,38.26 249.63,39.82 248.50,41.21 247.38,42.60 246.41,44.01 245.45,45.41 244.56,47.02 243.66,48.64 243.11,50.11 242.56,51.57 242.01,53.27 241.47,54.97 243.11,54.37 244.75,53.77 245.66,52.60 246.57,51.42 247.57,50.71 248.57,49.99 249.62,49.09 250.66,48.19 251.68,46.73 252.70,45.27 253.73,44.22 254.76,43.17 255.76,42.21 256.76,41.25 257.98,40.37 259.20,39.49 259.95,38.38 260.71,37.26 261.25,36.30 261.79,35.35 262.78,34.31 263.76,33.27 265.10,32.27 266.45,31.28 267.77,31.07 269.10,30.87 270.16,30.84 271.23,30.82 272.60,30.99 273.97,31.17 275.35,32.38 276.74,33.58 276.94,34.87 277.13,36.16 276.73,37.74 276.32,39.32 276.26,40.81 276.19,42.30 276.01,43.63 275.82,44.97 275.52,46.18 275.21,47.39 276.74,47.60 278.27,47.80 279.69,47.83 281.11,47.85 282.52,47.39 283.94,46.93 284.87,46.31 285.80,45.69 286.60,44.78 287.39,43.88 288.00,42.75 288.61,41.62 288.69,40.16 288.77,38.70 288.89,37.56 289.02,36.43 288.24,37.23 287.47,38.03 286.47,38.58 285.46,39.13 284.38,40.09 283.29,41.05 282.21,42.06 281.13,43.07 279.71,44.15 278.29,45.23 277.21,46.19 276.13,47.14 274.95,48.90 273.77,50.66 272.71,52.23 271.65,53.80 271.48,54.89 271.31,55.97 271.25,57.33 271.19,58.70 272.94,59.57 274.70,60.44 275.89,60.31 277.08,60.18 278.86,59.42 280.64,58.66 281.86,58.40 283.08,58.14 284.40,57.42 285.72,56.70 287.29,56.11 288.87,55.53 290.39,55.22 291.91,54.92 293.13,54.63 294.35,54.33 295.19,53.55 296.03,52.76 297.34,51.97 298.65,51.18 299.68,50.66 300.72,50.13 302.23,49.62 303.75,49.11 306.49,48.91 309.23,48.72 309.44,48.74 309.65,48.77 309.84,48.86 310.03,48.95 310.19,49.09 310.34,49.24 310.44,49.43 310.54,49.62 310.57,49.83 310.60,50.04 310.57,50.25 310.53,50.46 310.43,50.64 310.33,50.83 310.17,50.98 310.02,51.12 309.83,51.21 309.63,51.30 309.42,51.32 309.21,51.34 309.00,51.29 308.80,51.25 308.61,51.13 308.43,51.02 308.30,50.86 308.16,50.70 308.08,50.50 308.01,50.30 308.00,50.09 307.98,49.88 308.04,49.67 308.10,49.47 308.22,49.29 308.34,49.12 308.51,48.99 308.68,48.86 308.88,48.80 309.09,48.73 309.30,48.73 309.51,48.73 309.71,48.80 309.91,48.87 310.08,49.00 310.25,49.13 310.37,49.31 310.49,49.49 310.54,49.69 310.60,49.90 310.58,50.11 310.57,50.32 310.49,50.52 310.41,50.71 310.27,50.87 310.13,51.04 309.95,51.14 309.77,51.25 309.56,51.30 309.35,51.34 309.35,51.34 309.35,51.34 307.32,52.09 305.28,52.83 303.81,53.31 302.34,53.80 301.35,54.30 300.35,54.81 299.49,55.53 298.63,56.26 297.39,57.15 296.15,58.04 294.80,58.61 293.44,59.19 292.02,59.37 290.59,59.55 289.61,59.96 288.62,60.38 287.29,60.93 285.95,61.48 284.18,62.07 282.41,62.66 281.37,63.13 280.32,63.60 279.18,64.02 278.05,64.45 276.68,64.67 275.31,64.90 274.09,64.65 272.86,64.40 271.24,63.64 269.61,62.87 268.63,61.93 267.64,61.00 267.25,59.88 266.85,58.77 266.91,57.13 266.96,55.49 267.42,53.54 267.88,51.59 268.96,49.98 270.04,48.37 270.73,47.27 271.41,46.18 272.32,45.03 273.23,43.87 274.44,42.81 275.65,41.75 276.90,40.81 278.15,39.86 279.30,38.80 280.45,37.73 282.81,36.02 285.16,34.32 286.58,33.63 288.00,32.95 289.09,33.00 290.18,33.06 291.57,34.24 292.95,35.43 293.04,37.18 293.13,38.93 293.01,40.28 292.89,41.63 292.57,42.81 292.24,44.00 291.60,45.19 290.97,46.39 290.19,47.40 289.41,48.41 287.91,49.36 286.41,50.31 285.09,50.81 283.77,51.30 282.59,51.72 281.40,52.14 280.33,52.16 279.25,52.18 277.73,52.17 276.21,52.16 275.07,52.08 273.93,52.00 272.55,50.99 271.18,49.98 271.01,48.58 270.84,47.19 270.97,45.98 271.09,44.77 271.46,43.49 271.82,42.22 271.86,41.13 271.90,40.04 272.36,38.60 272.83,37.17 272.06,36.18 271.29,35.19 269.97,35.23 268.65,35.28 267.66,35.91 266.66,36.54 265.70,37.53 264.74,38.53 263.93,39.79 263.12,41.06 262.25,42.08 261.38,43.10 260.48,43.86 259.59,44.63 258.23,45.94 256.86,47.25 256.01,48.16 255.15,49.07 254.42,50.19 253.69,51.31 252.36,52.46 251.03,53.61 249.91,54.55 248.79,55.49 247.22,56.86 245.65,58.24 244.33,59.00 243.01,59.76 241.46,59.88 239.91,59.99 238.56,58.94 237.20,57.89 237.15,56.24 237.10,54.59 237.59,53.40 238.09,52.20 238.32,51.03 238.55,49.86 239.17,48.22 239.80,46.59 240.33,45.61 240.85,44.63 241.86,43.14 242.87,41.64 243.48,40.68 244.10,39.71 244.98,38.66 245.86,37.61 246.87,36.07 247.89,34.53 248.47,33.52 249.05,32.51 250.23,31.24 251.40,29.98 252.37,28.89 253.34,27.79 252.35,28.30 251.36,28.80 250.52,29.52 249.67,30.24 248.58,30.97 247.49,31.69 246.58,33.11 245.67,34.53 244.75,35.47 243.83,36.41 243.28,37.47 242.72,38.52 241.63,39.64 240.54,40.75 239.86,41.89 239.18,43.02 238.34,43.91 237.50,44.80 236.63,46.03 235.77,47.25 234.56,48.04 233.35,48.82 232.50,49.57 231.64,50.31 230.23,51.30 228.82,52.28 227.61,52.71 226.40,53.14 224.82,53.16 223.25,53.18 221.68,53.14 220.12,53.11 218.71,52.77 217.30,52.42 216.57,50.76 215.83,49.10 215.89,47.81 215.95,46.51 216.39,44.58 216.82,42.65 217.77,41.18 218.72,39.71 219.46,38.44 220.19,37.16 220.99,35.36 221.78,33.55 222.28,32.56 222.78,31.57 223.27,30.59 223.77,29.61 224.78,27.75 225.80,25.88 226.30,24.49 226.81,23.09 226.92,22.85 227.02,22.61 227.19,22.40 227.35,22.19 227.55,22.03 227.76,21.87 228.00,21.76 228.24,21.65 228.50,21.60 228.76,21.55 229.02,21.57 229.29,21.59 229.54,21.66 229.79,21.74 230.02,21.88 230.24,22.01 230.43,22.20 230.62,22.38 230.75,22.61 230.89,22.83 230.97,23.09 231.05,23.34 231.06,23.60 231.08,23.86 231.03,24.12 230.99,24.38 230.92,24.88 230.85,25.38 230.31,26.45 229.77,27.52 228.83,29.06 227.89,30.60 227.28,32.07 226.66,33.54 225.88,34.33 225.10,35.12 224.50,36.16 223.91,37.19 222.83,38.36 221.75,39.53 220.75,41.03 219.75,42.53 218.75,44.02 217.75,45.52 216.73,47.03 215.71,48.53 214.52,49.68 213.33,50.83 212.39,51.58 211.45,52.32 210.39,52.82 209.32,53.32 207.79,53.75 206.25,54.18 204.72,54.17 203.19,54.16 202.04,54.08 200.90,54.01 199.36,53.23 197.82,52.46 197.36,51.39 196.89,50.32 197.01,48.98 197.12,47.63 197.63,46.61 198.13,45.59 198.63,44.58 199.12,43.57 199.61,42.47 200.09,41.37 200.66,39.92 201.23,38.48 201.98,37.24 202.74,36.00 203.26,35.02 203.79,34.04 204.76,33.19 205.74,32.34 204.89,33.32 204.05,34.30 202.99,33.66 201.94,33.03 200.60,32.28 199.27,31.53 198.05,30.90 196.83,30.28 195.86,31.31 194.89,32.34 194.38,33.84 193.87,35.35 193.36,36.36 192.85,37.37 192.35,38.34 191.84,39.31 191.36,40.33 190.87,41.35 190.36,42.37 189.85,43.39 189.35,44.39 188.84,45.38 188.31,46.39 187.77,47.39 186.63,48.59 185.49,49.79 184.58,51.01 183.67,52.24 182.37,53.10 181.07,53.95 179.71,54.63 178.35,55.31 176.78,55.74 175.21,56.16 174.09,56.11 172.97,56.06 171.47,55.57 169.97,55.07 169.06,54.00 168.16,52.92 168.01,51.48 167.85,50.04 167.97,48.68 168.08,47.31 168.62,45.68 169.16,44.06 169.44,42.82 169.72,41.59 170.19,40.60 170.66,39.62 171.42,37.82 172.18,36.03 172.48,34.76 172.78,33.50 173.29,32.45 173.79,31.41 174.31,30.31 174.82,29.22 175.37,27.98 175.91,26.74 176.58,25.02 177.25,23.30 178.07,21.48 178.89,19.65 179.61,17.72 180.33,15.80 181.10,14.47 181.88,13.15 183.15,10.88 184.43,8.61 184.74,7.55 185.06,6.49 185.64,5.28 186.21,4.06 186.27,3.81 186.33,3.55 186.45,3.32 186.58,3.08 186.75,2.89 186.92,2.69 187.14,2.54 187.35,2.38 187.60,2.29 187.85,2.19 188.11,2.16 188.37,2.13 188.63,2.16 188.89,2.19 189.14,2.28 189.39,2.37 189.60,2.52 189.82,2.67 190.00,2.86 190.17,3.06 190.30,3.29 190.42,3.52 190.49,3.78 190.55,4.04 190.55,4.30 190.56,4.56 190.64,4.33 190.72,4.10 190.37,6.17 190.02,8.23 189.68,9.79 189.34,11.35 188.60,13.10 187.87,14.85 187.60,16.07 187.34,17.29 186.61,18.89 185.89,20.49 185.37,22.10 184.85,23.70 184.48,24.90 184.11,26.10 183.49,26.97 182.86,27.84 182.59,29.04 182.31,30.24 181.62,31.52 180.93,32.79 180.44,34.69 179.95,36.60 179.73,37.74 179.50,38.88 179.19,40.16 178.88,41.44 178.32,42.98 177.76,44.51 176.95,45.78 176.14,47.05 175.32,48.09 174.51,49.13 172.55,49.44 170.58,49.74 169.37,48.36 168.17,46.99 168.15,45.11 168.13,43.24 167.46,41.77 166.79,40.30 166.73,38.85 166.67,37.40 166.17,35.95 165.68,34.51 164.91,32.84 164.14,31.16 162.92,31.27 161.69,31.37 160.57,31.86 159.44,32.35 157.81,33.20 156.19,34.05 155.60,35.08 155.01,36.12 154.14,37.25 153.27,38.39 153.81,39.45 154.35,40.52 154.99,41.65 155.63,42.78 156.87,43.84 158.11,44.89 159.35,45.28 160.59,45.67 161.84,45.17 163.09,44.68 164.16,44.22 165.22,43.76 166.02,42.67 166.82,41.58 166.80,39.90 166.78,38.22 166.74,36.31 166.70,34.40 166.28,33.24 165.87,32.08 164.58,31.63 163.28,31.19 161.81,30.99 160.35,30.79 158.90,31.74 157.46,32.70 156.43,33.75 155.39,34.80 154.13,36.09 152.86,37.38 152.37,38.37 151.88,39.35 151.32,40.92 150.77,42.49 149.96,43.75 149.16,45.02 148.25,45.91 147.33,46.80 146.28,47.33 145.24,47.86 143.72,48.51 142.21,49.16 141.06,49.08 139.92,49.00 138.55,47.98 137.17,46.97 137.00,45.08 136.83,43.20 136.89,42.07 136.95,40.93 137.55,39.40 138.15,37.87 139.17,36.75 140.18,35.63 141.03,34.33 141.88,33.04 141.97,31.89 142.05,30.74 142.45,28.95 142.84,27.17 142.93,25.98 143.02,24.79 143.36,23.69 143.69,22.59 142.54,21.45 141.39,20.31 139.90,20.54 138.42,20.76 137.61,21.57 136.80,22.38 136.04,23.67 135.28,24.96 134.78,25.96 134.28,26.96 133.78,27.96 133.28,28.96 132.77,29.98 132.25,31.00 131.69,32.08 131.13,33.16 130.45,34.33 129.77,35.51 128.78,37.04 127.80,38.56 127.03,40.28 126.25,41.99 125.72,42.98 125.19,43.97 124.26,44.90 123.32,45.83 122.35,46.58 121.38,47.32 119.85,47.82 118.33,48.32 116.81,48.76 115.30,49.20 113.83,49.26 112.35,49.33 110.68,49.89 109.01,50.44 107.38,50.93 105.75,51.42 104.65,51.74 103.55,52.06 102.45,51.98 101.35,51.90 99.80,51.33 98.25,50.76 96.45,49.50 94.65,48.25 94.25,47.25 93.84,46.26 93.84,44.92 93.83,43.58 93.89,41.76 93.96,39.94 94.08,38.51 94.19,37.07 94.53,35.81 94.86,34.56 95.43,33.54 96.00,32.52 97.33,30.84 98.66,29.15 99.48,28.29 100.29,27.43 102.01,25.95 103.72,24.47 105.44,23.36 107.16,22.26 109.12,21.42 111.08,20.59 112.14,20.26 113.21,19.94 115.11,20.43 117.02,20.92 117.90,21.99 118.78,23.06 118.84,24.69 118.90,26.33 118.35,28.03 117.79,29.74 116.81,31.52 115.84,33.30 114.87,34.38 113.90,35.46 112.29,37.07 110.67,38.68 109.08,39.61 107.50,40.55 105.64,41.58 103.79,42.61 102.21,43.54 100.64,44.48 99.21,44.89 97.78,45.30 96.61,45.73 95.43,46.16 94.11,46.23 92.78,46.30 91.61,46.73 90.43,47.16 88.89,47.24 87.35,47.32 85.56,47.81 83.76,48.30 82.57,48.71 81.37,49.13 80.19,49.10 79.01,49.08 77.46,48.56 75.91,48.04 74.46,47.62 73.02,47.19 72.11,46.28 71.19,45.36 70.23,44.09 69.26,42.81 69.03,42.69 68.80,42.56 68.61,42.38 68.42,42.20 68.28,41.98 68.13,41.75 68.05,41.51 67.96,41.26 67.93,40.99 67.91,40.73 67.95,40.47 67.99,40.21 68.09,39.97 68.19,39.72 68.34,39.51 68.50,39.30 68.70,39.13 68.90,38.96 69.14,38.84 69.38,38.73 69.63,38.67 69.89,38.62 70.16,38.62 70.42,38.63 70.67,38.70 70.93,38.77 70.16,40.65 69.40,42.54 69.17,42.41 68.94,42.28 68.75,42.10 68.56,41.92 68.41,41.70 68.27,41.48 68.18,41.23 68.10,40.98 68.07,40.72 68.05,40.46 68.09,40.20 68.12,39.94 68.22,39.69 68.33,39.45 68.48,39.24 68.64,39.02 68.84,38.85 69.04,38.68 69.28,38.57 69.51,38.45 69.77,38.40 70.03,38.34 70.29,38.35 70.56,38.36 70.81,38.43 71.06,38.50 71.91,39.46 72.75,40.43 74.02,41.25 75.30,42.07 76.97,42.42 78.64,42.78 79.97,42.63 81.30,42.48 82.52,41.02 83.75,39.56 84.66,37.63 85.57,35.69 86.18,34.12 86.79,32.54 86.74,30.66 86.68,28.78 86.54,27.38 86.40,25.98 85.59,24.96 84.79,23.94 83.34,23.61 81.89,23.28 81.02,24.32 80.14,25.36 79.14,26.86 78.14,28.36 77.15,29.85 76.17,31.35 75.22,32.81 74.28,34.27 73.57,35.51 72.86,36.76 72.57,37.94 72.27,39.12 71.67,40.38 71.08,41.64 71.01,42.73 70.93,43.82 70.43,45.87 69.92,47.93 69.73,49.17 69.53,50.42 69.20,51.46 68.86,52.49 68.62,54.16 68.37,55.83 67.90,57.29 67.43,58.75 67.00,60.14 66.57,61.54 66.23,62.75 65.90,63.97 65.68,65.24 65.47,66.51 64.82,68.32 64.18,70.13 64.20,71.86 64.22,73.59 64.14,73.84 64.06,74.09 63.92,74.31 63.78,74.54 63.59,74.72 63.40,74.90 63.17,75.03 62.94,75.17 62.69,75.24 62.43,75.31 62.17,75.33 61.91,75.34 61.65,75.29 61.39,75.23 61.15,75.12 60.91,75.01 60.71,74.84 60.51,74.68 60.35,74.47 60.19,74.26 60.08,74.01 59.98,73.77 59.94,73.51 59.89,73.25 59.91,72.99 59.93,72.73 60.16,71.35 60.39,69.98 60.71,68.65 61.02,67.31 61.44,65.61 61.85,63.91 61.96,62.21 62.07,60.51 62.55,58.90 63.03,57.28 63.22,56.13 63.40,54.98 63.73,53.61 64.06,52.25 64.56,50.36 65.07,48.47 65.56,46.74 66.04,45.02 66.22,43.75 66.39,42.47 66.70,41.28 67.02,40.08 67.18,38.83 67.34,37.58 67.62,36.49 67.91,35.39 67.98,34.31 68.05,33.23 68.56,31.30 69.06,29.37 69.55,27.91 70.04,26.44 70.30,25.31 70.56,24.18 71.37,23.44 72.17,22.70 73.33,22.73 74.50,22.76 73.52,23.76 72.54,24.76 71.60,26.15 70.67,27.53 69.73,28.46 68.79,29.38 67.79,30.88 66.79,32.37 65.80,33.86 64.81,35.34 64.05,36.65 63.28,37.96 62.77,38.96 62.27,39.96 61.74,40.96 61.21,41.97 60.38,42.87 59.54,43.76 58.86,44.91 58.18,46.05 57.51,47.14 56.83,48.23 55.81,49.26 54.78,50.28 53.74,51.28 52.70,52.29 51.31,53.29 49.92,54.29 48.78,54.77 47.64,55.25 46.05,55.97 44.46,56.69 43.48,57.73 42.49,58.76 41.49,59.76 40.49,60.75 39.47,61.73 38.46,62.71 37.27,63.90 36.09,65.09 35.31,65.94 34.53,66.78 33.79,67.97 33.04,69.16 32.35,70.52 31.65,71.88 31.48,72.99 31.31,74.10 31.80,75.05 32.29,75.99 32.97,76.89 33.65,77.78 34.88,77.73 36.11,77.67 36.93,76.61 37.75,75.55 38.23,74.56 38.71,73.58 39.17,72.60 39.63,71.63 40.34,69.84 41.05,68.05 41.23,66.80 41.41,65.54 41.72,64.46 42.04,63.38 42.20,61.65 42.37,59.91 42.70,58.21 43.04,56.51 43.21,54.85 43.38,53.18 43.71,51.74 44.04,50.29 44.20,48.50 44.36,46.71 44.69,44.86 45.03,43.01 45.19,40.98 45.35,38.95 45.67,37.27 46.00,35.60 46.13,33.98 46.27,32.37 46.54,31.07 46.81,29.77 46.81,28.31 46.80,26.85 46.84,26.59 46.87,26.32 46.97,26.08 47.06,25.83 47.22,25.62 47.37,25.40 47.57,25.23 47.77,25.06 48.00,24.94 48.24,24.82 48.49,24.76 48.75,24.70 49.01,24.70 49.28,24.70 49.53,24.77 49.79,24.83 50.02,24.96 50.25,25.08 50.45,25.26 50.64,25.43 50.79,25.65 50.94,25.87 51.03,26.12 51.12,26.37 51.15,26.63 51.18,26.89 51.17,27.48 51.17,28.07 51.15,29.82 51.12,31.57 51.08,32.63 51.04,33.69 50.93,34.83 50.82,35.97 50.54,37.25 50.25,38.52 49.77,39.59 49.28,40.65 48.73,42.02 48.17,43.39 47.63,44.36 47.10,45.33 45.93,46.82 44.76,48.30 43.65,49.33 42.54,50.37 40.98,51.42 39.42,52.47 37.46,52.74 35.49,53.01 33.54,52.46 31.58,51.90 30.02,50.16 28.47,48.42 28.08,47.23 27.70,46.03 27.64,44.29 27.59,42.54 28.08,40.54 28.57,38.53 29.03,36.54 29.50,34.56 29.95,32.50 30.39,30.45 30.71,29.23 31.03,28.01 31.26,26.54 31.49,25.06 32.19,23.88 32.89,22.70 33.05,22.49 33.20,22.28 33.41,22.11 33.61,21.94 33.85,21.82 34.08,21.71 34.34,21.65 34.60,21.60 34.86,21.61 35.13,21.62 35.38,21.69 35.63,21.76 35.86,21.89 36.09,22.02 36.28,22.20 36.47,22.38 36.62,22.60 36.76,22.82 36.85,23.07 36.93,23.32 36.95,23.58 36.98,23.85 36.94,24.11 36.90,24.37 36.80,24.61 36.70,24.85 36.27,26.30 35.85,27.75 35.53,28.96 35.21,30.16 34.54,31.52 33.86,32.88 33.60,34.11 33.34,35.34 32.60,37.08 31.85,38.81 31.56,40.03 31.27,41.24 30.53,42.49 29.79,43.75 29.34,44.95 28.89,46.15 27.88,47.20 26.87,48.24 26.02,49.15 25.17,50.05 24.48,51.14 23.79,52.22 22.63,53.27 21.47,54.31 20.34,54.82 19.21,55.33 17.29,55.49 15.37,55.65 13.99,54.59 12.61,53.52 11.55,51.93 10.49,50.34 10.15,48.34 9.81,46.34 9.81,45.21 9.81,44.09 9.81,41.80 9.81,39.51 9.82,37.51 9.82,35.50 9.85,33.46 9.88,31.43 9.94,30.36 10.00,29.30 10.15,28.15 10.30,27.01 10.51,25.68 10.72,24.35 10.32,23.33 9.92,22.32 8.84,22.81 7.75,23.31 6.78,24.30 5.81,25.28 4.82,26.28 3.83,27.27 2.90,28.25 1.96,29.24 1.22,30.18 0.47,31.11 -0.08,32.66 -0.64,34.20 -1.25,35.25 -1.86,36.30 -1.96,37.78 -2.06,39.26 -2.45,40.54 -2.84,41.82 -2.94,43.01 -3.03,44.20 -3.21,45.35 -3.38,46.50 -3.41,46.76 -3.45,47.02 -3.54,47.26 -3.64,47.51 -3.79,47.72 -3.95,47.94 -4.15,48.11 -4.35,48.28 -4.58,48.40 -4.82,48.52 -5.07,48.58 -5.33,48.64 -5.59,48.64 -5.86,48.63 -6.11,48.57 -6.37,48.50 -6.60,48.38 -6.83,48.25 -7.02,48.07 -7.22,47.89 -7.37,47.68 -7.51,47.46 -7.60,47.21 -7.69,46.96 -7.72,46.70 -7.75,46.44 -7.45,45.23 -7.14,44.03 -7.11,42.71 -7.09,41.40 -7.02,39.65 -6.95,37.91 -6.80,35.87 -6.64,33.82 -6.30,31.28 -5.96,28.75 -5.80,25.89 -5.65,23.03 -5.30,19.91 -4.95,16.79 -4.79,13.26 -4.63,9.74 -4.28,6.39 -3.92,3.05 -3.73,-0.34 -3.54,-3.75 -3.12,-6.07 -2.70,-8.39 -2.44,-9.80 -2.18,-11.21 -2.15,-11.48 -2.12,-11.74 -2.02,-11.98 -1.93,-12.23 -1.78,-12.45 -1.63,-12.66 -1.43,-12.84 -1.24,-13.01 -1.00,-13.14 -0.77,-13.26 -0.51,-13.32 -0.26,-13.39 -0.00,-13.39 0.26,-13.39 0.51,-13.32 0.77,-13.26 1.00,-13.14 1.24,-13.01 1.43,-12.84 1.63,-12.66 1.78,-12.45 1.93,-12.23 2.02,-11.98 2.12,-11.74 2.15,-11.48 2.18,-11.22 2.18,-10.12 2.18,-9.03 2.18,-7.52 2.18,-6.01 2.18,-4.44 2.18,-2.87 2.18,-1.43 2.18,0 2.15,0.26 2.12,0.52 2.02,0.76 1.93,1.01 1.78,1.23 1.63,1.44 1.43,1.62 1.24,1.79 1.00,1.92 0.77,2.04 0.51,2.10 0.26,2.17 -0.00,2.17 -0.26,2.17 -0.51,2.10 -0.77,2.04 -1.00,1.92 -1.24,1.79 -1.43,1.62 -1.63,1.44 -1.78,1.23 -1.93,1.01 -2.02,0.76 -2.12,0.52 -2.15,0.26 -2.18,-0.00 -2.18,-0.00 L -2.18,0 Z"></path></g><g transform="translate(318 74) rotate(0 56 9.5)" stroke="none"><path fill="#ffffff" d="M -1.12,-1.87 Q -1.12,-1.87 0.31,-2.73 1.75,-3.59 2.98,-4.27 4.21,-4.95 5.88,-5.34 7.54,-5.73 8.55,-6.09 9.56,-6.46 10.56,-6.89 11.55,-7.32 12.93,-7.83 14.30,-8.33 15.61,-8.59 16.91,-8.84 18.59,-9.37 20.28,-9.91 22.17,-9.64 24.06,-9.36 25.40,-8.30 26.74,-7.24 27.37,-5.68 28.01,-4.12 28.08,-2.53 28.15,-0.93 27.78,0.31 27.41,1.56 26.46,2.60 25.52,3.64 24.49,5.03 23.47,6.43 21.64,7.58 19.82,8.73 18.24,9.31 16.66,9.90 14.99,10.02 13.33,10.14 12.09,10.15 10.85,10.17 9.51,10.18 8.18,10.18 7.00,10.18 5.81,10.18 4.21,10.16 2.60,10.14 1.22,9.59 -0.15,9.03 -1.08,7.55 -2.00,6.08 -1.66,4.38 -1.32,2.68 -0.30,1.35 0.71,0.02 1.71,-0.91 2.72,-1.84 3.71,-2.48 4.69,-3.12 5.92,-3.47 7.15,-3.81 9.08,-4.80 11.02,-5.80 12.18,-6.42 13.34,-7.04 14.97,-7.40 16.59,-7.76 18.41,-8.33 20.22,-8.90 21.62,-9.02 23.02,-9.13 24.53,-9.15 26.04,-9.17 27.46,-9.01 28.89,-8.85 30.31,-7.63 31.73,-6.42 31.93,-5.12 32.13,-3.83 31.50,-2.29 30.86,-0.75 31.00,0.83 31.15,2.42 30.72,3.60 30.30,4.78 29.89,6.20 29.49,7.63 29.37,8.77 29.26,9.92 28.89,11.11 28.53,12.31 28.39,13.59 28.26,14.87 27.89,16.08 27.53,17.28 27.38,18.36 27.23,19.43 26.76,20.62 26.29,21.82 25.79,22.86 25.29,23.90 24.68,25.05 24.06,26.20 22.89,27.32 21.72,28.44 20.34,29.25 18.96,30.06 17.86,30.11 16.77,30.16 15.25,30.17 13.74,30.18 12.66,30.16 11.59,30.14 10.40,29.72 9.22,29.30 7.85,28.47 6.48,27.63 6.50,26.18 6.51,24.73 7.47,24.06 8.42,23.39 9.46,22.32 10.50,21.25 11.68,20.20 12.87,19.15 13.91,18.48 14.96,17.80 15.88,16.95 16.80,16.09 18.18,15.16 19.57,14.23 20.90,13.34 22.24,12.45 23.58,11.70 24.93,10.96 25.99,10.33 27.05,9.69 28.47,9.32 29.90,8.95 30.86,8.32 31.81,7.69 32.83,6.91 33.86,6.13 34.91,5.46 35.96,4.80 36.83,3.99 37.71,3.18 38.54,2.28 39.37,1.39 40.53,-0.08 41.68,-1.56 42.52,-2.56 43.35,-3.56 44.55,-4.71 45.74,-5.85 46.72,-7.22 47.69,-8.58 48.69,-9.65 49.68,-10.72 50.56,-12.32 51.43,-13.91 52.04,-14.92 52.64,-15.93 53.15,-17.16 53.66,-18.39 53.44,-19.59 53.22,-20.79 53.27,-21.05 53.31,-21.31 53.42,-21.55 53.52,-21.79 53.68,-22.00 53.84,-22.21 54.05,-22.37 54.25,-22.54 54.49,-22.65 54.73,-22.76 54.99,-22.81 55.25,-22.86 55.51,-22.85 55.78,-22.84 56.03,-22.76 56.28,-22.68 56.51,-22.55 56.73,-22.42 56.92,-22.23 57.11,-22.05 57.25,-21.82 57.39,-21.60 57.47,-21.35 57.55,-21.10 57.57,-20.83 57.59,-20.57 57.38,-19.49 57.17,-18.42 56.36,-16.78 55.55,-15.14 55.06,-13.39 54.58,-11.64 54.11,-10.60 53.65,-9.57 53.12,-7.64 52.59,-5.72 52.43,-4.02 52.27,-2.33 52.24,-0.67 52.20,0.98 52.16,2.40 52.12,3.82 52.94,4.68 53.76,5.55 54.84,5.60 55.92,5.65 57.05,5.50 58.18,5.35 59.71,4.36 61.24,3.38 62.29,2.18 63.34,0.97 64.32,-0.80 65.30,-2.59 65.93,-3.91 66.56,-5.23 66.98,-6.32 67.41,-7.41 67.88,-8.44 68.34,-9.46 68.83,-10.47 69.32,-11.48 69.81,-12.48 70.30,-13.47 70.85,-15.38 71.39,-17.29 71.99,-18.76 72.59,-20.23 72.74,-20.78 72.90,-21.33 73.06,-21.53 73.22,-21.74 73.43,-21.91 73.64,-22.07 73.88,-22.18 74.12,-22.29 74.38,-22.33 74.64,-22.38 74.90,-22.37 75.16,-22.35 75.41,-22.27 75.67,-22.19 75.89,-22.06 76.12,-21.92 76.30,-21.74 76.49,-21.55 76.63,-21.33 76.76,-21.10 76.84,-20.85 76.92,-20.60 76.94,-20.33 76.95,-20.07 76.91,-19.81 76.86,-19.55 76.75,-19.31 76.64,-19.07 76.08,-17.74 75.51,-16.42 75.10,-15.24 74.69,-14.07 74.22,-12.70 73.76,-11.33 73.29,-9.65 72.82,-7.97 72.32,-6.34 71.81,-4.72 71.33,-2.92 70.84,-1.13 70.66,0.36 70.48,1.85 70.39,3.06 70.31,4.27 70.48,5.70 70.65,7.12 71.57,7.84 72.49,8.56 73.67,8.08 74.85,7.60 75.92,7.15 76.99,6.69 77.87,5.89 78.75,5.10 79.73,4.13 80.72,3.17 81.95,2.33 83.18,1.49 83.96,0.35 84.74,-0.78 85.71,-2.16 86.67,-3.53 87.08,-4.64 87.48,-5.74 88.04,-7.00 88.60,-8.25 89.10,-9.69 89.61,-11.13 90.07,-13.00 90.54,-14.87 90.93,-16.12 91.33,-17.36 91.40,-17.61 91.47,-17.87 91.60,-18.10 91.73,-18.33 91.91,-18.52 92.09,-18.71 92.31,-18.85 92.53,-18.99 92.78,-19.08 93.03,-19.16 93.30,-19.19 93.56,-19.21 93.82,-19.17 94.08,-19.13 94.32,-19.03 94.56,-18.93 94.78,-18.77 94.99,-18.61 95.16,-18.41 95.32,-18.21 95.44,-17.97 95.55,-17.73 95.61,-17.48 95.66,-17.22 95.65,-16.95 95.65,-16.69 95.53,-15.53 95.41,-14.36 95.04,-12.97 94.67,-11.57 93.89,-9.67 93.10,-7.76 92.54,-5.96 91.97,-4.15 91.75,-2.64 91.53,-1.13 91.43,0.07 91.33,1.28 92.58,1.40 93.82,1.52 95.51,0.46 97.20,-0.59 98.28,-1.26 99.35,-1.93 100.73,-3.52 102.11,-5.12 103.15,-6.69 104.19,-8.26 104.72,-9.33 105.25,-10.39 105.77,-11.42 106.28,-12.45 106.79,-13.47 107.29,-14.48 108.94,-16.19 110.58,-17.90 110.30,-17.68 110.01,-17.46 110.20,-17.64 110.40,-17.82 110.63,-17.95 110.86,-18.07 111.11,-18.14 111.37,-18.21 111.63,-18.22 111.89,-18.22 112.15,-18.17 112.41,-18.11 112.64,-17.99 112.88,-17.88 113.08,-17.71 113.28,-17.53 113.44,-17.32 113.59,-17.11 113.69,-16.86 113.79,-16.62 113.83,-16.36 113.87,-16.10 113.84,-15.84 113.81,-15.57 113.73,-15.32 113.64,-15.08 113.49,-14.86 113.35,-14.64 112.99,-12.91 112.64,-11.19 112.22,-9.04 111.80,-6.90 111.00,-4.38 110.21,-1.87 109.31,0.87 108.40,3.62 107.43,6.26 106.46,8.90 105.43,10.98 104.40,13.06 103.41,15.05 102.42,17.04 101.42,19.03 100.42,21.02 99.43,23.02 98.43,25.02 97.39,26.79 96.36,28.57 95.70,30.05 95.04,31.54 94.12,33.17 93.19,34.80 92.57,36.23 91.95,37.66 90.90,38.89 89.85,40.11 88.94,40.71 88.03,41.30 86.49,41.60 84.95,41.91 83.54,41.68 82.12,41.46 80.72,41.05 79.32,40.65 77.70,39.84 76.08,39.02 74.43,37.72 72.77,36.42 71.65,34.82 70.52,33.22 69.79,31.94 69.06,30.65 69.76,28.31 70.46,25.96 70.60,25.80 70.74,25.64 70.93,25.54 71.11,25.43 71.32,25.39 71.53,25.35 71.74,25.38 71.95,25.41 72.14,25.50 72.33,25.60 72.48,25.75 72.63,25.90 72.73,26.09 72.82,26.28 72.85,26.49 72.88,26.70 72.84,26.91 72.80,27.11 72.70,27.30 72.60,27.48 72.44,27.63 72.28,27.77 72.08,27.85 71.89,27.94 71.68,27.96 71.47,27.97 71.26,27.92 71.05,27.87 70.87,27.76 70.69,27.64 70.56,27.48 70.43,27.31 70.35,27.11 70.28,26.91 70.27,26.70 70.27,26.49 70.33,26.29 70.39,26.08 70.52,25.91 70.64,25.74 70.81,25.61 70.98,25.49 71.19,25.43 71.39,25.36 71.60,25.37 71.81,25.37 72.01,25.45 72.21,25.52 72.38,25.65 72.55,25.79 72.66,25.96 72.77,26.14 72.83,26.35 72.88,26.55 72.86,26.77 72.84,26.98 72.76,27.17 72.68,27.37 72.68,27.37 72.68,27.37 72.80,28.06 72.92,28.75 73.54,29.77 74.16,30.79 74.85,31.92 75.55,33.05 76.83,34.10 78.11,35.15 79.33,35.80 80.55,36.46 81.77,36.82 83.00,37.17 84.44,37.35 85.89,37.52 86.94,36.68 87.99,35.85 88.69,34.24 89.39,32.64 90.22,31.19 91.05,29.75 91.82,28.06 92.58,26.36 93.55,24.71 94.52,23.06 95.51,21.07 96.51,19.07 97.51,17.08 98.51,15.08 99.50,13.09 100.49,11.11 101.42,9.25 102.36,7.39 103.30,4.83 104.25,2.26 105.14,-0.46 106.04,-3.20 106.78,-5.47 107.51,-7.75 107.98,-10.10 108.45,-12.45 108.80,-13.61 109.15,-14.77 109.58,-16.12 110.01,-17.46 110.20,-17.64 110.40,-17.82 110.63,-17.95 110.86,-18.07 111.11,-18.14 111.37,-18.21 111.63,-18.22 111.89,-18.22 112.15,-18.17 112.41,-18.11 112.64,-17.99 112.88,-17.88 113.08,-17.71 113.28,-17.54 113.44,-17.32 113.59,-17.11 113.69,-16.86 113.79,-16.62 113.83,-16.36 113.87,-16.10 113.84,-15.84 113.81,-15.57 113.73,-15.33 113.64,-15.08 113.49,-14.86 113.35,-14.64 112.28,-13.58 111.20,-12.52 110.70,-11.51 110.19,-10.50 109.68,-9.47 109.17,-8.45 108.64,-7.39 108.12,-6.32 106.70,-4.22 105.29,-2.12 104.45,-1.23 103.61,-0.34 102.66,0.69 101.70,1.74 100.79,2.30 99.88,2.85 98.69,3.74 97.50,4.63 96.49,5.10 95.47,5.57 94.41,5.99 93.35,6.41 91.07,6.19 88.79,5.97 87.98,4.94 87.17,3.91 87.07,2.41 86.98,0.91 87.09,-0.44 87.21,-1.79 87.50,-3.63 87.80,-5.46 88.43,-7.45 89.07,-9.45 89.76,-11.07 90.45,-12.70 90.89,-15.03 91.33,-17.36 91.40,-17.61 91.47,-17.87 91.60,-18.10 91.73,-18.33 91.91,-18.52 92.09,-18.71 92.31,-18.85 92.53,-18.99 92.78,-19.08 93.03,-19.16 93.29,-19.19 93.56,-19.21 93.82,-19.17 94.08,-19.13 94.32,-19.03 94.56,-18.93 94.78,-18.77 94.99,-18.61 95.16,-18.41 95.32,-18.21 95.44,-17.97 95.55,-17.73 95.61,-17.48 95.66,-17.22 95.65,-16.95 95.65,-16.69 95.30,-16.02 94.95,-15.34 94.73,-14.22 94.52,-13.09 94.22,-11.72 93.92,-10.35 93.38,-8.80 92.84,-7.25 92.15,-5.59 91.46,-3.93 90.83,-2.45 90.21,-0.98 89.55,0.10 88.89,1.20 87.73,2.41 86.58,3.63 85.66,4.47 84.75,5.31 83.76,6.30 82.77,7.29 81.70,8.30 80.63,9.32 79.14,10.33 77.65,11.34 76.36,11.85 75.08,12.35 73.15,12.55 71.23,12.74 70.02,12.22 68.81,11.70 67.68,10.16 66.54,8.62 66.21,7.47 65.88,6.33 65.91,5.14 65.95,3.96 66.04,2.63 66.14,1.29 66.38,-0.49 66.62,-2.27 67.13,-4.14 67.64,-6.01 68.12,-7.58 68.61,-9.15 69.11,-10.94 69.62,-12.74 70.09,-14.13 70.56,-15.52 71.27,-17.38 71.98,-19.23 72.44,-20.28 72.90,-21.33 73.06,-21.53 73.22,-21.74 73.43,-21.91 73.64,-22.07 73.88,-22.18 74.12,-22.29 74.38,-22.33 74.64,-22.38 74.90,-22.37 75.16,-22.35 75.41,-22.27 75.67,-22.19 75.89,-22.06 76.12,-21.92 76.30,-21.74 76.49,-21.55 76.63,-21.33 76.76,-21.10 76.84,-20.85 76.92,-20.60 76.94,-20.33 76.95,-20.07 76.91,-19.81 76.86,-19.55 76.75,-19.31 76.64,-19.07 76.26,-18.25 75.88,-17.43 75.35,-15.75 74.83,-14.07 74.53,-12.82 74.24,-11.57 73.75,-10.58 73.26,-9.58 72.79,-8.61 72.32,-7.64 71.56,-5.91 70.80,-4.18 69.98,-2.36 69.16,-0.53 68.63,0.46 68.10,1.46 67.52,2.47 66.93,3.48 65.44,5.14 63.95,6.81 61.85,8.12 59.74,9.43 58.64,9.76 57.53,10.09 56.45,10.04 55.36,9.99 54.23,9.82 53.11,9.65 51.22,8.30 49.33,6.95 48.60,5.59 47.88,4.22 47.85,2.56 47.83,0.91 47.87,-0.85 47.91,-2.62 47.99,-3.71 48.07,-4.81 48.60,-6.84 49.13,-8.87 49.39,-10.10 49.65,-11.33 50.38,-13.04 51.11,-14.76 51.39,-15.95 51.67,-17.14 52.44,-18.97 53.22,-20.79 53.27,-21.05 53.31,-21.31 53.42,-21.55 53.52,-21.79 53.68,-22.00 53.84,-22.21 54.05,-22.37 54.25,-22.54 54.49,-22.65 54.73,-22.76 54.99,-22.81 55.25,-22.86 55.51,-22.85 55.78,-22.84 56.03,-22.76 56.28,-22.68 56.51,-22.55 56.73,-22.42 56.92,-22.23 57.11,-22.05 57.25,-21.82 57.39,-21.60 57.47,-21.35 57.55,-21.10 57.57,-20.83 57.59,-20.57 57.83,-19.79 58.08,-19.00 57.54,-17.40 57.00,-15.80 56.52,-14.29 56.04,-12.77 55.12,-11.36 54.19,-9.95 53.55,-8.87 52.90,-7.79 51.79,-6.59 50.69,-5.39 49.74,-4.06 48.80,-2.73 47.79,-1.75 46.77,-0.78 45.99,0.11 45.20,1.01 44.51,2.10 43.83,3.19 42.66,4.00 41.49,4.80 40.61,6.04 39.73,7.27 38.34,8.22 36.95,9.17 35.94,10.18 34.93,11.19 33.67,11.75 32.42,12.31 30.95,12.81 29.48,13.32 28.47,13.81 27.46,14.30 26.41,14.56 25.36,14.82 24.54,15.55 23.72,16.28 22.54,17.05 21.36,17.82 20.55,18.56 19.73,19.31 18.67,20.29 17.62,21.27 16.59,21.95 15.57,22.63 14.58,23.46 13.58,24.29 11.92,24.67 10.25,25.05 11.99,25.43 13.73,25.81 15.20,25.80 16.67,25.79 18.08,25.55 19.50,25.30 20.10,24.17 20.70,23.04 21.19,22.04 21.68,21.05 22.30,19.95 22.93,18.85 23.15,17.38 23.38,15.92 23.71,14.24 24.04,12.57 24.47,11.08 24.90,9.59 25.16,7.81 25.42,6.04 25.73,4.89 26.05,3.74 26.45,1.96 26.84,0.19 26.97,-1.00 27.09,-2.21 27.13,-3.51 27.18,-4.81 26.00,-4.80 24.82,-4.79 23.51,-4.75 22.21,-4.71 20.92,-4.57 19.63,-4.42 17.49,-3.80 15.35,-3.17 14.28,-2.59 13.21,-2.01 11.79,-1.21 10.37,-0.40 8.66,0.09 6.94,0.60 5.79,1.48 4.64,2.36 3.72,2.92 2.79,3.48 2.84,4.67 2.88,5.85 4.35,5.83 5.81,5.81 6.99,5.81 8.17,5.81 9.49,5.80 10.81,5.80 11.99,5.78 13.17,5.77 14.99,5.66 16.81,5.54 18.05,5.07 19.28,4.60 20.17,3.55 21.05,2.50 22.42,0.80 23.79,-0.90 23.76,-2.50 23.74,-4.10 22.90,-4.92 22.07,-5.74 20.93,-5.61 19.79,-5.47 17.80,-4.85 15.80,-4.23 14.54,-3.77 13.28,-3.31 12.15,-2.82 11.01,-2.33 9.71,-1.89 8.41,-1.44 7.34,-1.27 6.27,-1.10 5.13,-0.47 3.99,0.14 2.56,1.01 1.12,1.87 0.88,1.98 0.64,2.08 0.38,2.13 0.12,2.18 -0.13,2.16 -0.40,2.14 -0.65,2.06 -0.90,1.99 -1.12,1.85 -1.35,1.71 -1.53,1.52 -1.72,1.34 -1.86,1.11 -1.99,0.89 -2.07,0.63 -2.15,0.38 -2.16,0.12 -2.18,-0.13 -2.13,-0.39 -2.08,-0.65 -1.97,-0.89 -1.86,-1.13 -1.70,-1.34 -1.54,-1.55 -1.33,-1.71 -1.12,-1.87 -1.12,-1.87 L -1.12,-1.87 Z"></path></g></svg>